DavidX-Medium_draw_HB.ufo
<glyph name="quotedbl" format="1">
  <advance width="1009"/>
  <unicode hex="0022"/>
  <outline>
    <contour>
      <point x="200" y="908" type="line" smooth="yes"/>
      <point x="200" y="925"/>
      <point x="200" y="944"/>
      <point x="210" y="957" type="curve" smooth="yes"/>
      <point x="235" y="987"/>
      <point x="323" y="1077"/>
      <point x="355" y="1115" type="curve" smooth="yes"/>
      <point x="361" y="1120"/>
      <point x="369" y="1122"/>
      <point x="375" y="1122" type="curve" smooth="yes"/>
      <point x="380" y="1122"/>
      <point x="390" y="1118"/>
      <point x="395" y="1113" type="curve" smooth="yes"/>
      <point x="402" y="1100"/>
      <point x="405" y="1086"/>
      <point x="405" y="1059" type="curve" smooth="yes"/>
      <point x="405" y="1059"/>
      <point x="409" y="968"/>
      <point x="409" y="930" type="curve" smooth="yes"/>
      <point x="409" y="884"/>
      <point x="402" y="844"/>
      <point x="389" y="780" type="curve" smooth="yes"/>
      <point x="375" y="704"/>
      <point x="362" y="627"/>
      <point x="332" y="482" type="curve" smooth="yes"/>
      <point x="328" y="468"/>
      <point x="312" y="453"/>
      <point x="298" y="453" type="curve" smooth="yes"/>
      <point x="284" y="453"/>
      <point x="263" y="466"/>
      <point x="263" y="489" type="curve" smooth="yes"/>
    </contour>
    <contour>
      <point x="627" y="908" type="line"/>
      <point x="627" y="925"/>
      <point x="627" y="944"/>
      <point x="636" y="957" type="curve" smooth="yes"/>
      <point x="662" y="987"/>
      <point x="749" y="1077"/>
      <point x="781" y="1115" type="curve" smooth="yes"/>
      <point x="787" y="1120"/>
      <point x="795" y="1122"/>
      <point x="801" y="1122" type="curve" smooth="yes"/>
      <point x="807" y="1122"/>
      <point x="817" y="1118"/>
      <point x="821" y="1113" type="curve" smooth="yes"/>
      <point x="828" y="1100"/>
      <point x="831" y="1086"/>
      <point x="831" y="1059" type="curve" smooth="yes"/>
      <point x="831" y="956" type="line" smooth="yes"/>
      <point x="831" y="893"/>
      <point x="831" y="857"/>
      <point x="817" y="792" type="curve" smooth="yes"/>
      <point x="803" y="732"/>
      <point x="758" y="556"/>
      <point x="732" y="482" type="curve" smooth="yes"/>
      <point x="725" y="468"/>
      <point x="711" y="453"/>
      <point x="697" y="453" type="curve" smooth="yes"/>
      <point x="683" y="453"/>
      <point x="663" y="466"/>
      <point x="663" y="489" type="curve"/>
    </contour>
  </outline>
</glyph>
<glyph name="numbersign" format="1">
  <advance width="1018"/>
  <unicode hex="0023"/>
  <outline>
    <contour>
      <point x="683" y="961" type="line" smooth="yes"/>
      <point x="681" y="956"/>
      <point x="676" y="946"/>
      <point x="667" y="946" type="curve" smooth="yes"/>
      <point x="457" y="946" type="line" smooth="yes"/>
      <point x="452" y="946"/>
      <point x="445" y="948"/>
      <point x="445" y="954" type="curve" smooth="yes"/>
      <point x="445" y="954"/>
      <point x="448" y="970"/>
      <point x="511" y="1235" type="curve" smooth="yes"/>
      <point x="518" y="1265"/>
      <point x="530" y="1305"/>
      <point x="530" y="1320" type="curve" smooth="yes"/>
      <point x="530" y="1332"/>
      <point x="525" y="1335"/>
      <point x="518" y="1335" type="curve" smooth="yes"/>
      <point x="509" y="1335"/>
      <point x="498" y="1327"/>
      <point x="486" y="1319" type="curve" smooth="yes"/>
      <point x="438" y="1286" type="line" smooth="yes"/>
      <point x="421" y="1276"/>
      <point x="416" y="1258"/>
      <point x="412" y="1236" type="curve" smooth="yes"/>
      <point x="362" y="961" type="line" smooth="yes"/>
      <point x="361" y="951"/>
      <point x="355" y="946"/>
      <point x="346" y="946" type="curve" smooth="yes"/>
      <point x="238" y="946" type="line" smooth="yes"/>
      <point x="228" y="946"/>
      <point x="215" y="944"/>
      <point x="200" y="932" type="curve" smooth="yes"/>
      <point x="181" y="912"/>
      <point x="127" y="824"/>
      <point x="99" y="773" type="curve" smooth="yes"/>
      <point x="97" y="769"/>
      <point x="95" y="763"/>
      <point x="95" y="758" type="curve" smooth="yes"/>
      <point x="95" y="749"/>
      <point x="102" y="742"/>
      <point x="122" y="742" type="curve" smooth="yes"/>
      <point x="306" y="742" type="line" smooth="yes"/>
      <point x="312" y="742"/>
      <point x="315" y="737"/>
      <point x="315" y="732" type="curve" smooth="yes"/>
      <point x="298" y="640"/>
      <point x="291" y="607"/>
      <point x="270" y="522" type="curve" smooth="yes"/>
      <point x="270" y="518"/>
      <point x="269" y="511"/>
      <point x="256" y="511" type="curve" smooth="yes"/>
      <point x="129" y="511" type="line" smooth="yes"/>
      <point x="118" y="511"/>
      <point x="106" y="509"/>
      <point x="91" y="496" type="curve" smooth="yes"/>
      <point x="72" y="477"/>
      <point x="22" y="390"/>
      <point x="-9" y="337" type="curve" smooth="yes"/>
      <point x="-11" y="333"/>
      <point x="-12" y="328"/>
      <point x="-12" y="323" type="curve" smooth="yes"/>
      <point x="-12" y="313"/>
      <point x="-5" y="306"/>
      <point x="14" y="306" type="curve" smooth="yes"/>
      <point x="212" y="306" type="line" smooth="yes"/>
      <point x="221" y="306"/>
      <point x="222" y="299"/>
      <point x="222" y="294" type="curve"/>
      <point x="195" y="176"/>
      <point x="165" y="79"/>
      <point x="133" y="-29" type="curve" smooth="yes"/>
      <point x="125" y="-52"/>
      <point x="115" y="-93"/>
      <point x="115" y="-101" type="curve" smooth="yes"/>
      <point x="115" y="-111"/>
      <point x="122" y="-118"/>
      <point x="135" y="-118" type="curve" smooth="yes"/>
      <point x="140" y="-118"/>
      <point x="151" y="-108"/>
      <point x="163" y="-95" type="curve" smooth="yes"/>
      <point x="183" y="-74"/>
      <point x="217" y="-38"/>
      <point x="217" y="-38" type="curve"/>
      <point x="228" y="-24"/>
      <point x="236" y="2"/>
      <point x="242" y="29" type="curve" smooth="yes"/>
      <point x="299" y="292" type="line" smooth="yes"/>
      <point x="301" y="301"/>
      <point x="305" y="306"/>
      <point x="315" y="306" type="curve" smooth="yes"/>
      <point x="536" y="306" type="line" smooth="yes"/>
      <point x="545" y="306"/>
      <point x="547" y="303"/>
      <point x="547" y="299" type="curve" smooth="yes"/>
      <point x="547" y="292"/>
      <point x="489" y="70"/>
      <point x="459" y="-29" type="curve" smooth="yes"/>
      <point x="450" y="-55"/>
      <point x="441" y="-93"/>
      <point x="441" y="-101" type="curve" smooth="yes"/>
      <point x="441" y="-111"/>
      <point x="448" y="-118"/>
      <point x="460" y="-118" type="curve" smooth="yes"/>
      <point x="466" y="-118"/>
      <point x="477" y="-108"/>
      <point x="489" y="-95" type="curve" smooth="yes"/>
      <point x="509" y="-74"/>
      <point x="543" y="-38"/>
      <point x="543" y="-38" type="curve"/>
      <point x="554" y="-24"/>
      <point x="563" y="2"/>
      <point x="568" y="29" type="curve" smooth="yes"/>
      <point x="622" y="294" type="line" smooth="yes"/>
      <point x="624" y="298"/>
      <point x="624" y="306"/>
      <point x="638" y="306" type="curve" smooth="yes"/>
      <point x="753" y="306" type="line" smooth="yes"/>
      <point x="776" y="306"/>
      <point x="790" y="312"/>
      <point x="797" y="321" type="curve" smooth="yes"/>
      <point x="824" y="353"/>
      <point x="858" y="405"/>
      <point x="893" y="468" type="curve" smooth="yes"/>
      <point x="898" y="477"/>
      <point x="901" y="486"/>
      <point x="901" y="493" type="curve" smooth="yes"/>
      <point x="901" y="503"/>
      <point x="894" y="511"/>
      <point x="874" y="511" type="curve" smooth="yes"/>
      <point x="676" y="511" type="line" smooth="yes"/>
      <point x="669" y="511"/>
      <point x="667" y="515"/>
      <point x="667" y="520" type="curve"/>
      <point x="713" y="727" type="line" smooth="yes"/>
      <point x="715" y="739"/>
      <point x="718" y="742"/>
      <point x="733" y="742" type="curve" smooth="yes"/>
      <point x="858" y="742" type="line" smooth="yes"/>
      <point x="882" y="742"/>
      <point x="898" y="747"/>
      <point x="903" y="756" type="curve" smooth="yes"/>
      <point x="934" y="797"/>
      <point x="964" y="846"/>
      <point x="995" y="901" type="curve" smooth="yes"/>
      <point x="1000" y="910"/>
      <point x="1004" y="921"/>
      <point x="1004" y="928" type="curve" smooth="yes"/>
      <point x="1004" y="939"/>
      <point x="997" y="946"/>
      <point x="977" y="946" type="curve" smooth="yes"/>
      <point x="773" y="946" type="line" smooth="yes"/>
      <point x="767" y="946"/>
      <point x="763" y="948"/>
      <point x="763" y="954" type="curve" smooth="yes"/>
      <point x="763" y="956"/>
      <point x="788" y="1054"/>
      <point x="830" y="1226" type="curve" smooth="yes"/>
      <point x="838" y="1262"/>
      <point x="851" y="1305"/>
      <point x="851" y="1320" type="curve" smooth="yes"/>
      <point x="851" y="1332"/>
      <point x="846" y="1335"/>
      <point x="838" y="1335" type="curve" smooth="yes"/>
      <point x="830" y="1335"/>
      <point x="819" y="1327"/>
      <point x="807" y="1319" type="curve" smooth="yes"/>
      <point x="758" y="1286" type="line" smooth="yes"/>
      <point x="742" y="1276"/>
      <point x="737" y="1258"/>
      <point x="733" y="1236" type="curve" smooth="yes"/>
    </contour>
    <contour>
      <point x="396" y="730" type="line" smooth="yes"/>
      <point x="398" y="739"/>
      <point x="405" y="744"/>
      <point x="412" y="744" type="curve" smooth="yes"/>
      <point x="626" y="744" type="line" smooth="yes"/>
      <point x="634" y="744"/>
      <point x="638" y="739"/>
      <point x="638" y="735" type="curve" smooth="yes"/>
      <point x="638" y="724"/>
      <point x="592" y="525"/>
      <point x="592" y="523" type="curve" smooth="yes"/>
      <point x="592" y="518"/>
      <point x="586" y="511"/>
      <point x="571" y="511" type="curve" smooth="yes"/>
      <point x="359" y="511" type="line" smooth="yes"/>
      <point x="349" y="511"/>
      <point x="346" y="513"/>
      <point x="346" y="518" type="curve"/>
    </contour>
  </outline>
</glyph>
<glyph name="ampersand" format="1">
  <advance width="1353"/>
  <unicode hex="0026"/>
  <outline>
    <contour>
      <point x="486" y="622" type="curve"/>
      <point x="585" y="491"/>
      <point x="733" y="305"/>
      <point x="814" y="208" type="curve"/>
      <point x="790" y="188"/>
      <point x="730" y="156"/>
      <point x="645" y="156" type="curve" smooth="yes"/>
      <point x="486" y="156"/>
      <point x="393" y="313"/>
      <point x="393" y="403" type="curve" smooth="yes"/>
      <point x="393" y="520"/>
      <point x="450" y="599"/>
    </contour>
    <contour>
      <point x="321" y="944" type="curve" smooth="yes"/>
      <point x="321" y="876"/>
      <point x="340" y="814"/>
      <point x="403" y="732" type="curve"/>
      <point x="368" y="708"/>
      <point x="185" y="581"/>
      <point x="185" y="364" type="curve" smooth="yes"/>
      <point x="185" y="102"/>
      <point x="382" y="-7"/>
      <point x="561" y="-7" type="curve" smooth="yes"/>
      <point x="701" y="-7"/>
      <point x="801" y="58"/>
      <point x="886" y="115" type="curve"/>
      <point x="896" y="99"/>
      <point x="957" y="27"/>
      <point x="980" y="4" type="curve" smooth="yes"/>
      <point x="982" y="2"/>
      <point x="997" y="-11"/>
      <point x="1005" y="-11" type="curve" smooth="yes"/>
      <point x="1019" y="-11"/>
      <point x="1040" y="-2"/>
      <point x="1045" y="2" type="curve" smooth="yes"/>
      <point x="1100" y="32"/>
      <point x="1122" y="52"/>
      <point x="1173" y="89" type="curve" smooth="yes"/>
      <point x="1194" y="104"/>
      <point x="1202" y="111"/>
      <point x="1202" y="123" type="curve" smooth="yes"/>
      <point x="1202" y="131"/>
      <point x="1185" y="144"/>
      <point x="1180" y="149" type="curve" smooth="yes"/>
      <point x="1132" y="199"/>
      <point x="1110" y="219"/>
      <point x="1055" y="285" type="curve"/>
      <point x="1149" y="393"/>
      <point x="1194" y="523"/>
      <point x="1194" y="627" type="curve" smooth="yes"/>
      <point x="1194" y="706"/>
      <point x="1183" y="767"/>
      <point x="1142" y="838" type="curve" smooth="yes"/>
      <point x="1134" y="850"/>
      <point x="1131" y="851"/>
      <point x="1124" y="851" type="curve" smooth="yes"/>
      <point x="1117" y="851"/>
      <point x="1108" y="843"/>
      <point x="1103" y="837" type="curve" smooth="yes"/>
      <point x="1081" y="817"/>
      <point x="993" y="732"/>
      <point x="970" y="706" type="curve" smooth="yes"/>
      <point x="963" y="699"/>
      <point x="956" y="684"/>
      <point x="956" y="679" type="curve" smooth="yes"/>
      <point x="956" y="676"/>
      <point x="959" y="667"/>
      <point x="963" y="660" type="curve" smooth="yes"/>
      <point x="982" y="619"/>
      <point x="1016" y="545"/>
      <point x="1016" y="489" type="curve" smooth="yes"/>
      <point x="1016" y="443"/>
      <point x="987" y="398"/>
      <point x="977" y="375" type="curve"/>
      <point x="869" y="500"/>
      <point x="809" y="597"/>
      <point x="667" y="769" type="curve"/>
      <point x="747" y="830"/>
      <point x="884" y="932"/>
      <point x="884" y="1065" type="curve" smooth="yes"/>
      <point x="884" y="1185"/>
      <point x="809" y="1294"/>
      <point x="677" y="1294" type="curve" smooth="yes"/>
      <point x="487" y="1294"/>
      <point x="321" y="1145"/>
    </contour>
    <contour>
      <point x="581" y="1154" type="curve" smooth="yes"/>
      <point x="634" y="1154"/>
      <point x="681" y="1110"/>
      <point x="681" y="1036" type="curve" smooth="yes"/>
      <point x="681" y="970"/>
      <point x="633" y="900"/>
      <point x="592" y="872" type="curve"/>
      <point x="554" y="921"/>
      <point x="500" y="1031"/>
      <point x="500" y="1072" type="curve" smooth="yes"/>
      <point x="500" y="1118"/>
      <point x="541" y="1154"/>
    </contour>
  </outline>
</glyph>
<glyph name="quotesingle" format="1">
  <advance width="556"/>
  <unicode hex="0027"/>
  <outline>
    <contour>
      <point x="186" y="908" type="line"/>
      <point x="186" y="925"/>
      <point x="186" y="944"/>
      <point x="195" y="957" type="curve" smooth="yes"/>
      <point x="221" y="987"/>
      <point x="308" y="1077"/>
      <point x="340" y="1115" type="curve" smooth="yes"/>
      <point x="346" y="1120"/>
      <point x="355" y="1122"/>
      <point x="361" y="1122" type="curve" smooth="yes"/>
      <point x="366" y="1122"/>
      <point x="376" y="1118"/>
      <point x="380" y="1113" type="curve" smooth="yes"/>
      <point x="387" y="1100"/>
      <point x="390" y="1086"/>
      <point x="390" y="1059" type="curve" smooth="yes"/>
      <point x="390" y="956" type="line" smooth="yes"/>
      <point x="390" y="893"/>
      <point x="390" y="857"/>
      <point x="376" y="792" type="curve" smooth="yes"/>
      <point x="362" y="732"/>
      <point x="317" y="556"/>
      <point x="291" y="482" type="curve" smooth="yes"/>
      <point x="285" y="468"/>
      <point x="270" y="453"/>
      <point x="256" y="453" type="curve" smooth="yes"/>
      <point x="242" y="453"/>
      <point x="222" y="466"/>
      <point x="222" y="489" type="curve"/>
    </contour>
  </outline>
</glyph>
<glyph name="parenleft" format="1">
  <advance width="732"/>
  <unicode hex="0028"/>
  <outline>
    <contour>
      <point x="332" y="536" type="curve" smooth="yes"/>
      <point x="332" y="690"/>
      <point x="385" y="837"/>
      <point x="424" y="935" type="curve" smooth="yes"/>
      <point x="455" y="1012"/>
      <point x="525" y="1151"/>
      <point x="561" y="1215" type="curve" smooth="yes"/>
      <point x="570" y="1231"/>
      <point x="573" y="1236"/>
      <point x="573" y="1242" type="curve" smooth="yes"/>
      <point x="573" y="1249"/>
      <point x="568" y="1255"/>
      <point x="561" y="1255" type="curve" smooth="yes"/>
      <point x="556" y="1255"/>
      <point x="541" y="1249"/>
      <point x="532" y="1243" type="curve" smooth="yes"/>
      <point x="496" y="1222"/>
      <point x="441" y="1175"/>
      <point x="434" y="1170" type="curve" smooth="yes"/>
      <point x="416" y="1154"/>
      <point x="393" y="1127"/>
      <point x="376" y="1100" type="curve" smooth="yes"/>
      <point x="362" y="1077"/>
      <point x="291" y="949"/>
      <point x="260" y="887" type="curve" smooth="yes"/>
      <point x="212" y="785"/>
      <point x="140" y="631"/>
      <point x="140" y="457" type="curve" smooth="yes"/>
      <point x="140" y="340"/>
      <point x="166" y="183"/>
      <point x="229" y="41" type="curve" smooth="yes"/>
      <point x="289" y="-91"/>
      <point x="373" y="-212"/>
      <point x="434" y="-279" type="curve" smooth="yes"/>
      <point x="439" y="-287"/>
      <point x="453" y="-299"/>
      <point x="462" y="-299" type="curve" smooth="yes"/>
      <point x="472" y="-299"/>
      <point x="477" y="-294"/>
      <point x="482" y="-285" type="curve" smooth="yes"/>
      <point x="500" y="-256"/>
      <point x="543" y="-178"/>
      <point x="564" y="-122" type="curve" smooth="yes"/>
      <point x="568" y="-113"/>
      <point x="570" y="-104"/>
      <point x="570" y="-99" type="curve" smooth="yes"/>
      <point x="570" y="-86"/>
      <point x="563" y="-77"/>
      <point x="556" y="-67" type="curve" smooth="yes"/>
      <point x="500" y="14"/>
      <point x="468" y="53"/>
      <point x="407" y="190" type="curve" smooth="yes"/>
      <point x="357" y="303"/>
      <point x="332" y="439"/>
    </contour>
  </outline>
</glyph>
<glyph name="parenright" format="1">
  <advance width="732"/>
  <unicode hex="0029"/>
  <outline>
    <contour>
      <point x="378" y="419" type="curve" smooth="yes"/>
      <point x="378" y="265"/>
      <point x="326" y="118"/>
      <point x="287" y="20" type="curve" smooth="yes"/>
      <point x="256" y="-58"/>
      <point x="183" y="-192"/>
      <point x="144" y="-270" type="curve" smooth="yes"/>
      <point x="142" y="-274"/>
      <point x="137" y="-284"/>
      <point x="137" y="-287" type="curve" smooth="yes"/>
      <point x="137" y="-294"/>
      <point x="142" y="-299"/>
      <point x="149" y="-299" type="curve" smooth="yes"/>
      <point x="154" y="-299"/>
      <point x="169" y="-294"/>
      <point x="178" y="-289" type="curve" smooth="yes"/>
      <point x="214" y="-267"/>
      <point x="269" y="-221"/>
      <point x="276" y="-215" type="curve" smooth="yes"/>
      <point x="294" y="-199"/>
      <point x="317" y="-172"/>
      <point x="333" y="-145" type="curve" smooth="yes"/>
      <point x="347" y="-122"/>
      <point x="419" y="5"/>
      <point x="450" y="68" type="curve" smooth="yes"/>
      <point x="498" y="171"/>
      <point x="570" y="325"/>
      <point x="570" y="498" type="curve" smooth="yes"/>
      <point x="570" y="614"/>
      <point x="543" y="773"/>
      <point x="480" y="914" type="curve" smooth="yes"/>
      <point x="421" y="1047"/>
      <point x="337" y="1166"/>
      <point x="276" y="1235" type="curve" smooth="yes"/>
      <point x="270" y="1242"/>
      <point x="256" y="1255"/>
      <point x="248" y="1255" type="curve" smooth="yes"/>
      <point x="238" y="1255"/>
      <point x="233" y="1249"/>
      <point x="228" y="1240" type="curve" smooth="yes"/>
      <point x="210" y="1211"/>
      <point x="166" y="1132"/>
      <point x="145" y="1077" type="curve" smooth="yes"/>
      <point x="142" y="1068"/>
      <point x="140" y="1059"/>
      <point x="140" y="1054" type="curve" smooth="yes"/>
      <point x="140" y="1041"/>
      <point x="147" y="1033"/>
      <point x="154" y="1021" type="curve" smooth="yes"/>
      <point x="210" y="941"/>
      <point x="242" y="901"/>
      <point x="303" y="765" type="curve" smooth="yes"/>
      <point x="353" y="652"/>
      <point x="378" y="516"/>
    </contour>
  </outline>
</glyph>
<glyph name="plus" format="1">
  <advance width="975"/>
  <unicode hex="002B"/>
  <outline>
    <contour>
      <point x="421" y="199" type="curve"/>
      <point x="421" y="176"/>
      <point x="432" y="171"/>
      <point x="450" y="171" type="curve" smooth="yes"/>
      <point x="541" y="171" type="line" smooth="yes"/>
      <point x="557" y="171"/>
      <point x="568" y="176"/>
      <point x="568" y="199" type="curve" smooth="yes"/>
      <point x="568" y="199"/>
      <point x="564" y="371"/>
      <point x="563" y="498" type="curve"/>
      <point x="660" y="496"/>
      <point x="860" y="493"/>
      <point x="860" y="493" type="curve"/>
      <point x="884" y="493"/>
      <point x="889" y="503"/>
      <point x="889" y="520" type="curve" smooth="yes"/>
      <point x="889" y="611" type="line" smooth="yes"/>
      <point x="889" y="636"/>
      <point x="880" y="640"/>
      <point x="864" y="640" type="curve" smooth="yes"/>
      <point x="864" y="640"/>
      <point x="674" y="634"/>
      <point x="563" y="634" type="curve"/>
      <point x="563" y="735"/>
      <point x="568" y="923"/>
      <point x="568" y="923" type="curve"/>
      <point x="568" y="946"/>
      <point x="557" y="951"/>
      <point x="541" y="951" type="curve" smooth="yes"/>
      <point x="450" y="951" type="line" smooth="yes"/>
      <point x="424" y="951"/>
      <point x="421" y="937"/>
      <point x="421" y="927" type="curve" smooth="yes"/>
      <point x="421" y="927"/>
      <point x="424" y="747"/>
      <point x="426" y="634" type="curve"/>
      <point x="298" y="636"/>
      <point x="137" y="640"/>
      <point x="137" y="640" type="curve"/>
      <point x="113" y="640"/>
      <point x="108" y="629"/>
      <point x="108" y="611" type="curve" smooth="yes"/>
      <point x="108" y="520" type="line" smooth="yes"/>
      <point x="108" y="503"/>
      <point x="113" y="493"/>
      <point x="137" y="493" type="curve" smooth="yes"/>
      <point x="137" y="493"/>
      <point x="301" y="496"/>
      <point x="426" y="498" type="curve"/>
      <point x="424" y="368"/>
      <point x="421" y="199"/>
    </contour>
  </outline>
</glyph>
<glyph name="hyphen" format="1">
  <advance width="730"/>
  <unicode hex="002D"/>
  <outline>
    <contour>
      <point x="178" y="957" type="curve" smooth="yes"/>
      <point x="131" y="894"/>
      <point x="75" y="803"/>
      <point x="75" y="778" type="curve" smooth="yes"/>
      <point x="75" y="760"/>
      <point x="93" y="754"/>
      <point x="113" y="754" type="curve" smooth="yes"/>
      <point x="518" y="754" type="line" smooth="yes"/>
      <point x="541" y="754"/>
      <point x="564" y="778"/>
      <point x="590" y="812" type="curve" smooth="yes"/>
      <point x="613" y="844"/>
      <point x="634" y="884"/>
      <point x="655" y="928" type="curve" smooth="yes"/>
      <point x="660" y="941"/>
      <point x="663" y="951"/>
      <point x="663" y="959" type="curve" smooth="yes"/>
      <point x="663" y="982"/>
      <point x="647" y="989"/>
      <point x="622" y="989" type="curve" smooth="yes"/>
      <point x="233" y="989" type="line" smooth="yes"/>
      <point x="214" y="989"/>
      <point x="195" y="980"/>
    </contour>
  </outline>
</glyph>
<glyph name="period" format="1">
  <advance width="690"/>
  <unicode hex="002E"/>
  <outline>
    <contour>
      <point x="233" y="97" type="curve" smooth="yes"/>
      <point x="267" y="52"/>
      <point x="330" y="-2"/>
      <point x="378" y="-31" type="curve" smooth="yes"/>
      <point x="383" y="-34"/>
      <point x="390" y="-36"/>
      <point x="398" y="-36" type="curve" smooth="yes"/>
      <point x="405" y="-36"/>
      <point x="414" y="-32"/>
      <point x="419" y="-27" type="curve" smooth="yes"/>
      <point x="453" y="5"/>
      <point x="503" y="61"/>
      <point x="532" y="106" type="curve" smooth="yes"/>
      <point x="537" y="115"/>
      <point x="543" y="123"/>
      <point x="543" y="133" type="curve" smooth="yes"/>
      <point x="543" y="145"/>
      <point x="536" y="154"/>
      <point x="527" y="159" type="curve" smooth="yes"/>
      <point x="489" y="181"/>
      <point x="428" y="240"/>
      <point x="393" y="272" type="curve" smooth="yes"/>
      <point x="383" y="279"/>
      <point x="378" y="284"/>
      <point x="369" y="284" type="curve" smooth="yes"/>
      <point x="361" y="284"/>
      <point x="351" y="277"/>
      <point x="344" y="270" type="curve" smooth="yes"/>
      <point x="323" y="248"/>
      <point x="258" y="178"/>
      <point x="231" y="145" type="curve" smooth="yes"/>
      <point x="224" y="137"/>
      <point x="222" y="129"/>
      <point x="222" y="122" type="curve" smooth="yes"/>
      <point x="222" y="113"/>
      <point x="228" y="104"/>
    </contour>
  </outline>
</glyph>
<glyph name="slash" format="1">
  <advance width="732"/>
  <unicode hex="002F"/>
  <outline>
    <contour>
      <point x="301" y="475" type="curve" smooth="yes"/>
      <point x="200" y="226"/>
      <point x="89" y="-7"/>
      <point x="39" y="-129" type="curve" smooth="yes"/>
      <point x="36" y="-138"/>
      <point x="32" y="-149"/>
      <point x="32" y="-156" type="curve" smooth="yes"/>
      <point x="32" y="-166"/>
      <point x="39" y="-174"/>
      <point x="52" y="-174" type="curve" smooth="yes"/>
      <point x="58" y="-174"/>
      <point x="63" y="-172"/>
      <point x="72" y="-166" type="curve" smooth="yes"/>
      <point x="93" y="-154"/>
      <point x="135" y="-127"/>
      <point x="161" y="-102" type="curve" smooth="yes"/>
      <point x="176" y="-88"/>
      <point x="193" y="-38"/>
      <point x="214" y="9" type="curve" smooth="yes"/>
      <point x="277" y="158"/>
      <point x="337" y="313"/>
      <point x="414" y="508" type="curve" smooth="yes"/>
      <point x="473" y="656"/>
      <point x="636" y="1045"/>
      <point x="688" y="1180" type="curve" smooth="yes"/>
      <point x="692" y="1188"/>
      <point x="697" y="1208"/>
      <point x="697" y="1215" type="curve" smooth="yes"/>
      <point x="697" y="1221"/>
      <point x="692" y="1228"/>
      <point x="684" y="1228" type="curve" smooth="yes"/>
      <point x="674" y="1228"/>
      <point x="660" y="1219"/>
      <point x="648" y="1209" type="curve" smooth="yes"/>
      <point x="568" y="1149" type="line" smooth="yes"/>
      <point x="550" y="1136"/>
      <point x="543" y="1122"/>
      <point x="536" y="1100" type="curve" smooth="yes"/>
      <point x="511" y="1031"/>
      <point x="417" y="763"/>
    </contour>
  </outline>
</glyph>
<glyph name="one" format="1">
  <advance width="1018"/>
  <unicode hex="0031"/>
  <outline>
    <contour>
      <point x="115" y="39" type="curve" smooth="yes"/>
      <point x="109" y="27"/>
      <point x="109" y="24"/>
      <point x="109" y="18" type="curve" smooth="yes"/>
      <point x="109" y="5"/>
      <point x="131" y="0"/>
      <point x="156" y="0" type="curve" smooth="yes"/>
      <point x="740" y="0" type="line" smooth="yes"/>
      <point x="801" y="0"/>
      <point x="837" y="93"/>
      <point x="886" y="178" type="curve" smooth="yes"/>
      <point x="893" y="190"/>
      <point x="900" y="207"/>
      <point x="900" y="214" type="curve" smooth="yes"/>
      <point x="900" y="229"/>
      <point x="887" y="235"/>
      <point x="874" y="235" type="curve" smooth="yes"/>
      <point x="690" y="235" type="line" smooth="yes"/>
      <point x="655" y="235"/>
      <point x="643" y="251"/>
      <point x="641" y="291" type="curve" smooth="yes"/>
      <point x="640" y="359"/>
      <point x="624" y="614"/>
      <point x="624" y="918" type="curve" smooth="yes"/>
      <point x="624" y="970"/>
      <point x="619" y="1115"/>
      <point x="606" y="1211" type="curve" smooth="yes"/>
      <point x="599" y="1267"/>
      <point x="579" y="1291"/>
      <point x="549" y="1291" type="curve" smooth="yes"/>
      <point x="527" y="1291"/>
      <point x="511" y="1283"/>
      <point x="480" y="1265" type="curve" smooth="yes"/>
      <point x="390" y="1213"/>
      <point x="277" y="1140"/>
      <point x="200" y="1077" type="curve" smooth="yes"/>
      <point x="181" y="1061"/>
      <point x="169" y="1040"/>
      <point x="169" y="1021" type="curve" smooth="yes"/>
      <point x="169" y="1002"/>
      <point x="188" y="995"/>
      <point x="219" y="993" type="curve" smooth="yes"/>
      <point x="228" y="993"/>
      <point x="263" y="991"/>
      <point x="274" y="991" type="curve" smooth="yes"/>
      <point x="333" y="989"/>
      <point x="396" y="954"/>
      <point x="407" y="850" type="curve" smooth="yes"/>
      <point x="421" y="713"/>
      <point x="428" y="581"/>
      <point x="428" y="291" type="curve" smooth="yes"/>
      <point x="428" y="260"/>
      <point x="412" y="235"/>
      <point x="380" y="235" type="curve" smooth="yes"/>
      <point x="251" y="235" type="line" smooth="yes"/>
      <point x="224" y="235"/>
      <point x="214" y="228"/>
      <point x="204" y="214" type="curve" smooth="yes"/>
      <point x="179" y="179"/>
      <point x="133" y="81"/>
    </contour>
  </outline>
</glyph>
<glyph name="three" format="1">
  <advance width="1018"/>
  <unicode hex="0033"/>
  <outline>
    <contour>
      <point x="137" y="86" type="curve" smooth="yes"/>
      <point x="127" y="74"/>
      <point x="123" y="65"/>
      <point x="123" y="55" type="curve" smooth="yes"/>
      <point x="123" y="41"/>
      <point x="142" y="34"/>
      <point x="151" y="31" type="curve" smooth="yes"/>
      <point x="244" y="-7"/>
      <point x="340" y="-29"/>
      <point x="423" y="-29" type="curve" smooth="yes"/>
      <point x="503" y="-29"/>
      <point x="614" y="5"/>
      <point x="701" y="88" type="curve" smooth="yes"/>
      <point x="781" y="165"/>
      <point x="872" y="291"/>
      <point x="872" y="445" type="curve" smooth="yes"/>
      <point x="872" y="624"/>
      <point x="718" y="696"/>
      <point x="665" y="722" type="curve" smooth="yes"/>
      <point x="658" y="725"/>
      <point x="652" y="724"/>
      <point x="652" y="735" type="curve" smooth="yes"/>
      <point x="652" y="739"/>
      <point x="660" y="751"/>
      <point x="670" y="760" type="curve" smooth="yes"/>
      <point x="732" y="812"/>
      <point x="799" y="894"/>
      <point x="799" y="1012" type="curve" smooth="yes"/>
      <point x="799" y="1113"/>
      <point x="732" y="1185"/>
      <point x="641" y="1224" type="curve" smooth="yes"/>
      <point x="559" y="1260"/>
      <point x="441" y="1276"/>
      <point x="373" y="1276" type="curve" smooth="yes"/>
      <point x="355" y="1276"/>
      <point x="342" y="1265"/>
      <point x="332" y="1253" type="curve" smooth="yes"/>
      <point x="299" y="1215"/>
      <point x="215" y="1103"/>
      <point x="215" y="1084" type="curve" smooth="yes"/>
      <point x="215" y="1067"/>
      <point x="226" y="1062"/>
      <point x="246" y="1062" type="curve" smooth="yes"/>
      <point x="291" y="1062"/>
      <point x="402" y="1055"/>
      <point x="460" y="1041" type="curve" smooth="yes"/>
      <point x="541" y="1021"/>
      <point x="595" y="973"/>
      <point x="595" y="914" type="curve" smooth="yes"/>
      <point x="595" y="848"/>
      <point x="550" y="792"/>
      <point x="464" y="758" type="curve" smooth="yes"/>
      <point x="432" y="746"/>
      <point x="405" y="725"/>
      <point x="389" y="704" type="curve" smooth="yes"/>
      <point x="351" y="655"/>
      <point x="317" y="599"/>
      <point x="317" y="577" type="curve" smooth="yes"/>
      <point x="317" y="552"/>
      <point x="326" y="549"/>
      <point x="351" y="549" type="curve" smooth="yes"/>
      <point x="393" y="549"/>
      <point x="453" y="537"/>
      <point x="496" y="525" type="curve" smooth="yes"/>
      <point x="617" y="491"/>
      <point x="652" y="407"/>
      <point x="652" y="355" type="curve" smooth="yes"/>
      <point x="652" y="277"/>
      <point x="600" y="190"/>
      <point x="464" y="188" type="curve" smooth="yes"/>
      <point x="403" y="188"/>
      <point x="330" y="214"/>
      <point x="301" y="226" type="curve" smooth="yes"/>
      <point x="285" y="233"/>
      <point x="272" y="238"/>
      <point x="263" y="238" type="curve" smooth="yes"/>
      <point x="253" y="238"/>
      <point x="242" y="229"/>
      <point x="231" y="215" type="curve" smooth="yes"/>
      <point x="204" y="183"/>
      <point x="176" y="142"/>
    </contour>
  </outline>
</glyph>
<glyph name="seven" format="1">
  <advance width="1018"/>
  <unicode hex="0037"/>
  <outline>
    <contour>
      <point x="244" y="240" type="curve" smooth="yes"/>
      <point x="221" y="178"/>
      <point x="200" y="97"/>
      <point x="200" y="-12" type="curve" smooth="yes"/>
      <point x="200" y="-31"/>
      <point x="210" y="-43"/>
      <point x="224" y="-43" type="curve" smooth="yes"/>
      <point x="233" y="-43"/>
      <point x="248" y="-32"/>
      <point x="258" y="-24" type="curve" smooth="yes"/>
      <point x="315" y="24"/>
      <point x="390" y="97"/>
      <point x="439" y="156" type="curve" smooth="yes"/>
      <point x="453" y="174"/>
      <point x="464" y="195"/>
      <point x="464" y="219" type="curve" smooth="yes"/>
      <point x="464" y="249"/>
      <point x="484" y="319"/>
      <point x="496" y="359" type="curve" smooth="yes"/>
      <point x="530" y="460"/>
      <point x="609" y="593"/>
      <point x="674" y="686" type="curve" smooth="yes"/>
      <point x="718" y="751"/>
      <point x="816" y="891"/>
      <point x="860" y="978" type="curve" smooth="yes"/>
      <point x="898" y="1052"/>
      <point x="930" y="1132"/>
      <point x="930" y="1161" type="curve" smooth="yes"/>
      <point x="930" y="1183"/>
      <point x="925" y="1208"/>
      <point x="880" y="1208" type="curve" smooth="yes"/>
      <point x="371" y="1208" type="line" smooth="yes"/>
      <point x="317" y="1208"/>
      <point x="308" y="1213"/>
      <point x="292" y="1262" type="curve" smooth="yes"/>
      <point x="287" y="1276"/>
      <point x="276" y="1286"/>
      <point x="262" y="1286" type="curve" smooth="yes"/>
      <point x="251" y="1286"/>
      <point x="244" y="1281"/>
      <point x="233" y="1269" type="curve" smooth="yes"/>
      <point x="186" y="1213"/>
      <point x="138" y="1127"/>
      <point x="99" y="1050" type="curve" smooth="yes"/>
      <point x="91" y="1034"/>
      <point x="79" y="1014"/>
      <point x="79" y="1005" type="curve" smooth="yes"/>
      <point x="79" y="980"/>
      <point x="91" y="970"/>
      <point x="123" y="970" type="curve" smooth="yes"/>
      <point x="588" y="970" type="line" smooth="yes"/>
      <point x="607" y="970"/>
      <point x="617" y="963"/>
      <point x="617" y="946" type="curve" smooth="yes"/>
      <point x="617" y="894"/>
      <point x="534" y="742"/>
      <point x="468" y="638" type="curve" smooth="yes"/>
      <point x="371" y="489"/>
      <point x="287" y="353"/>
    </contour>
  </outline>
</glyph>
<glyph name="semicolon" format="1">
  <advance width="732"/>
  <unicode hex="003B"/>
  <outline>
    <contour>
      <point x="224" y="568" type="curve" smooth="yes"/>
      <point x="258" y="522"/>
      <point x="321" y="468"/>
      <point x="369" y="439" type="curve" smooth="yes"/>
      <point x="375" y="436"/>
      <point x="382" y="434"/>
      <point x="389" y="434" type="curve" smooth="yes"/>
      <point x="396" y="434"/>
      <point x="403" y="438"/>
      <point x="409" y="443" type="curve" smooth="yes"/>
      <point x="443" y="477"/>
      <point x="494" y="530"/>
      <point x="523" y="575" type="curve" smooth="yes"/>
      <point x="529" y="585"/>
      <point x="534" y="595"/>
      <point x="534" y="604" type="curve" smooth="yes"/>
      <point x="534" y="614"/>
      <point x="527" y="624"/>
      <point x="518" y="631" type="curve" smooth="yes"/>
      <point x="482" y="655"/>
      <point x="419" y="711"/>
      <point x="383" y="742" type="curve" smooth="yes"/>
      <point x="375" y="749"/>
      <point x="369" y="754"/>
      <point x="361" y="754" type="curve" smooth="yes"/>
      <point x="351" y="754"/>
      <point x="342" y="749"/>
      <point x="335" y="740" type="curve" smooth="yes"/>
      <point x="315" y="717"/>
      <point x="251" y="645"/>
      <point x="222" y="614" type="curve" smooth="yes"/>
      <point x="215" y="607"/>
      <point x="214" y="599"/>
      <point x="214" y="592" type="curve" smooth="yes"/>
      <point x="214" y="585"/>
      <point x="219" y="575"/>
    </contour>
    <contour>
      <point x="210" y="-246" type="curve" smooth="yes"/>
      <point x="199" y="-277"/>
      <point x="193" y="-291"/>
      <point x="193" y="-305" type="curve" smooth="yes"/>
      <point x="193" y="-317"/>
      <point x="200" y="-330"/>
      <point x="214" y="-330" type="curve" smooth="yes"/>
      <point x="233" y="-330"/>
      <point x="251" y="-312"/>
      <point x="270" y="-292" type="curve" smooth="yes"/>
      <point x="339" y="-224"/>
      <point x="383" y="-138"/>
      <point x="432" y="-61" type="curve" smooth="yes"/>
      <point x="479" y="12"/>
      <point x="506" y="106"/>
      <point x="506" y="165" type="curve" smooth="yes"/>
      <point x="506" y="214"/>
      <point x="494" y="269"/>
      <point x="477" y="305" type="curve" smooth="yes"/>
      <point x="466" y="326"/>
      <point x="453" y="342"/>
      <point x="443" y="342" type="curve" smooth="yes"/>
      <point x="426" y="342"/>
      <point x="417" y="339"/>
      <point x="403" y="325" type="curve" smooth="yes"/>
      <point x="353" y="274"/>
      <point x="319" y="242"/>
      <point x="294" y="208" type="curve" smooth="yes"/>
      <point x="285" y="195"/>
      <point x="277" y="185"/>
      <point x="277" y="166" type="curve" smooth="yes"/>
      <point x="277" y="145"/>
      <point x="285" y="113"/>
      <point x="285" y="68" type="curve" smooth="yes"/>
      <point x="285" y="-39"/>
      <point x="240" y="-156"/>
    </contour>
  </outline>
</glyph>
<glyph name="less" format="1">
  <advance width="975"/>
  <unicode hex="003C"/>
  <outline>
    <contour>
      <point x="494" y="330" type="curve" smooth="yes"/>
      <point x="585" y="285"/>
      <point x="790" y="172"/>
      <point x="790" y="172" type="curve"/>
      <point x="797" y="169"/>
      <point x="805" y="165"/>
      <point x="810" y="165" type="curve" smooth="yes"/>
      <point x="821" y="165"/>
      <point x="824" y="171"/>
      <point x="831" y="185" type="curve" smooth="yes"/>
      <point x="871" y="262" type="line" smooth="yes"/>
      <point x="876" y="272"/>
      <point x="879" y="277"/>
      <point x="879" y="284" type="curve" smooth="yes"/>
      <point x="879" y="291"/>
      <point x="874" y="298"/>
      <point x="860" y="305" type="curve" smooth="yes"/>
      <point x="794" y="335"/>
      <point x="662" y="400"/>
      <point x="527" y="468" type="curve" smooth="yes"/>
      <point x="453" y="506"/>
      <point x="380" y="543"/>
      <point x="315" y="579" type="curve"/>
      <point x="563" y="708" type="line" smooth="yes"/>
      <point x="636" y="746"/>
      <point x="860" y="853"/>
      <point x="860" y="853" type="curve"/>
      <point x="872" y="860"/>
      <point x="879" y="865"/>
      <point x="879" y="874" type="curve" smooth="yes"/>
      <point x="879" y="882"/>
      <point x="876" y="887"/>
      <point x="871" y="898" type="curve" smooth="yes"/>
      <point x="824" y="977" type="line" smooth="yes"/>
      <point x="817" y="987"/>
      <point x="810" y="991"/>
      <point x="809" y="991" type="curve" smooth="yes"/>
      <point x="803" y="991"/>
      <point x="795" y="989"/>
      <point x="790" y="985" type="curve" smooth="yes"/>
      <point x="694" y="932"/>
      <point x="373" y="767"/>
      <point x="145" y="655" type="curve" smooth="yes"/>
      <point x="127" y="645"/>
      <point x="118" y="643"/>
      <point x="118" y="624" type="curve" smooth="yes"/>
      <point x="118" y="537" type="line" smooth="yes"/>
      <point x="118" y="516"/>
      <point x="127" y="511"/>
      <point x="142" y="503" type="curve" smooth="yes"/>
      <point x="308" y="419"/>
      <point x="441" y="357"/>
    </contour>
  </outline>
</glyph>
<glyph name="backslash" format="1">
  <advance width="732"/>
  <unicode hex="005C"/>
  <outline>
    <contour>
      <point x="590" y="-151" type="line" smooth="yes"/>
      <point x="599" y="-172"/>
      <point x="607" y="-181"/>
      <point x="617" y="-181" type="curve" smooth="yes"/>
      <point x="627" y="-181"/>
      <point x="636" y="-166"/>
      <point x="638" y="-156" type="curve" smooth="yes"/>
      <point x="643" y="-133"/>
      <point x="656" y="-53"/>
      <point x="656" y="-34" type="curve" smooth="yes"/>
      <point x="656" y="-16"/>
      <point x="647" y="2"/>
      <point x="643" y="9" type="curve" smooth="yes"/>
      <point x="556" y="188"/>
      <point x="472" y="400"/>
      <point x="403" y="573" type="curve" smooth="yes"/>
      <point x="315" y="795"/>
      <point x="190" y="1104"/>
      <point x="147" y="1213" type="curve" smooth="yes"/>
      <point x="144" y="1222"/>
      <point x="137" y="1228"/>
      <point x="129" y="1228" type="curve" smooth="yes"/>
      <point x="120" y="1228"/>
      <point x="113" y="1219"/>
      <point x="108" y="1204" type="curve" smooth="yes"/>
      <point x="97" y="1178"/>
      <point x="86" y="1156"/>
      <point x="79" y="1129" type="curve" smooth="yes"/>
      <point x="77" y="1120"/>
      <point x="74" y="1110"/>
      <point x="74" y="1096" type="curve" smooth="yes"/>
      <point x="74" y="1082"/>
      <point x="89" y="1055"/>
      <point x="99" y="1038" type="curve" smooth="yes"/>
      <point x="159" y="914"/>
      <point x="210" y="805"/>
      <point x="328" y="508" type="curve" smooth="yes"/>
    </contour>
  </outline>
</glyph>
<glyph name="bracketright" format="1">
  <advance width="732"/>
  <unicode hex="005D"/>
  <outline>
    <contour>
      <point x="599" y="-75" type="curve" smooth="yes"/>
      <point x="599" y="81"/>
      <point x="590" y="277"/>
      <point x="590" y="559" type="curve" smooth="yes"/>
      <point x="590" y="763"/>
      <point x="602" y="1000"/>
      <point x="602" y="1095" type="curve" smooth="yes"/>
      <point x="602" y="1165"/>
      <point x="566" y="1242"/>
      <point x="487" y="1242" type="curve" smooth="yes"/>
      <point x="102" y="1242" type="line" smooth="yes"/>
      <point x="88" y="1242"/>
      <point x="77" y="1240"/>
      <point x="77" y="1229" type="curve" smooth="yes"/>
      <point x="77" y="1221"/>
      <point x="82" y="1213"/>
      <point x="97" y="1199" type="curve" smooth="yes"/>
      <point x="113" y="1183"/>
      <point x="137" y="1161"/>
      <point x="154" y="1147" type="curve" smooth="yes"/>
      <point x="179" y="1127"/>
      <point x="199" y="1118"/>
      <point x="215" y="1118" type="curve" smooth="yes"/>
      <point x="383" y="1118" type="line" smooth="yes"/>
      <point x="432" y="1118"/>
      <point x="434" y="1082"/>
      <point x="434" y="921" type="curve" smooth="yes"/>
      <point x="434" y="790"/>
      <point x="432" y="617"/>
      <point x="432" y="541" type="curve" smooth="yes"/>
      <point x="432" y="373"/>
      <point x="431" y="22"/>
      <point x="428" y="-70" type="curve" smooth="yes"/>
      <point x="428" y="-108"/>
      <point x="409" y="-123"/>
      <point x="382" y="-123" type="curve" smooth="yes"/>
      <point x="108" y="-123" type="line" smooth="yes"/>
      <point x="88" y="-123"/>
      <point x="77" y="-127"/>
      <point x="77" y="-138" type="curve" smooth="yes"/>
      <point x="77" y="-147"/>
      <point x="86" y="-154"/>
      <point x="99" y="-166" type="curve" smooth="yes"/>
      <point x="122" y="-190"/>
      <point x="140" y="-204"/>
      <point x="159" y="-219" type="curve" smooth="yes"/>
      <point x="185" y="-238"/>
      <point x="208" y="-248"/>
      <point x="244" y="-248" type="curve" smooth="yes"/>
      <point x="431" y="-248" type="line" smooth="yes"/>
      <point x="554" y="-248"/>
      <point x="599" y="-200"/>
    </contour>
  </outline>
</glyph>
<glyph name="logicalnot" format="1">
  <advance width="975"/>
  <unicode hex="00AC"/>
  <outline>
    <contour>
      <point x="718" y="202" type="curve"/>
      <point x="718" y="179"/>
      <point x="730" y="174"/>
      <point x="747" y="174" type="curve" smooth="yes"/>
      <point x="824" y="174" type="line" smooth="yes"/>
      <point x="841" y="174"/>
      <point x="851" y="179"/>
      <point x="851" y="202" type="curve" smooth="yes"/>
      <point x="851" y="202"/>
      <point x="846" y="439"/>
      <point x="846" y="559" type="curve" smooth="yes"/>
      <point x="846" y="636" type="line" smooth="yes"/>
      <point x="846" y="662"/>
      <point x="837" y="665"/>
      <point x="821" y="665" type="curve" smooth="yes"/>
      <point x="821" y="665"/>
      <point x="595" y="660"/>
      <point x="493" y="660" type="curve" smooth="yes"/>
      <point x="376" y="660"/>
      <point x="133" y="665"/>
      <point x="133" y="665" type="curve"/>
      <point x="109" y="665"/>
      <point x="104" y="655"/>
      <point x="104" y="636" type="curve" smooth="yes"/>
      <point x="104" y="559" type="line" smooth="yes"/>
      <point x="104" y="543"/>
      <point x="109" y="532"/>
      <point x="133" y="532" type="curve" smooth="yes"/>
      <point x="133" y="532"/>
      <point x="398" y="537"/>
      <point x="496" y="537" type="curve" smooth="yes"/>
      <point x="545" y="537"/>
      <point x="645" y="536"/>
      <point x="724" y="534" type="curve"/>
      <point x="722" y="403"/>
      <point x="718" y="202"/>
    </contour>
  </outline>
</glyph>
<glyph name="periodcentered" format="1">
  <advance width="655"/>
  <unicode hex="00B7"/>
  <outline>
    <contour>
      <point x="208" y="486" type="curve" smooth="yes"/>
      <point x="236" y="448"/>
      <point x="298" y="393"/>
      <point x="355" y="359" type="curve" smooth="yes"/>
      <point x="362" y="353"/>
      <point x="369" y="351"/>
      <point x="376" y="351" type="curve" smooth="yes"/>
      <point x="383" y="351"/>
      <point x="393" y="357"/>
      <point x="398" y="362" type="curve" smooth="yes"/>
      <point x="428" y="390"/>
      <point x="480" y="450"/>
      <point x="515" y="496" type="curve" smooth="yes"/>
      <point x="520" y="501"/>
      <point x="523" y="513"/>
      <point x="523" y="520" type="curve" smooth="yes"/>
      <point x="523" y="529"/>
      <point x="518" y="537"/>
      <point x="509" y="543" type="curve" smooth="yes"/>
      <point x="462" y="571"/>
      <point x="403" y="626"/>
      <point x="371" y="658" type="curve" smooth="yes"/>
      <point x="362" y="667"/>
      <point x="357" y="670"/>
      <point x="349" y="670" type="curve" smooth="yes"/>
      <point x="340" y="670"/>
      <point x="332" y="665"/>
      <point x="325" y="656" type="curve" smooth="yes"/>
      <point x="210" y="530" type="line" smooth="yes"/>
      <point x="200" y="522"/>
      <point x="199" y="513"/>
      <point x="199" y="506" type="curve" smooth="yes"/>
      <point x="199" y="496"/>
      <point x="204" y="491"/>
    </contour>
  </outline>
</glyph>
<glyph name="uni0308" format="1">
  <advance width="0"/>
  <unicode hex="0308"/>
  <outline>
    <contour>
      <point x="-633" y="1245" type="curve" smooth="yes"/>
      <point x="-607" y="1209"/>
      <point x="-559" y="1168"/>
      <point x="-523" y="1147" type="curve" smooth="yes"/>
      <point x="-520" y="1145"/>
      <point x="-515" y="1144"/>
      <point x="-508" y="1144" type="curve" smooth="yes"/>
      <point x="-501" y="1144"/>
      <point x="-496" y="1147"/>
      <point x="-493" y="1151" type="curve" smooth="yes"/>
      <point x="-468" y="1175"/>
      <point x="-428" y="1217"/>
      <point x="-405" y="1251" type="curve" smooth="yes"/>
      <point x="-402" y="1258"/>
      <point x="-398" y="1265"/>
      <point x="-398" y="1272" type="curve" smooth="yes"/>
      <point x="-398" y="1281"/>
      <point x="-403" y="1289"/>
      <point x="-410" y="1294" type="curve" smooth="yes"/>
      <point x="-438" y="1312"/>
      <point x="-486" y="1355"/>
      <point x="-513" y="1378" type="curve" smooth="yes"/>
      <point x="-520" y="1383"/>
      <point x="-523" y="1387"/>
      <point x="-530" y="1387" type="curve" smooth="yes"/>
      <point x="-536" y="1387"/>
      <point x="-543" y="1383"/>
      <point x="-549" y="1376" type="curve" smooth="yes"/>
      <point x="-564" y="1358"/>
      <point x="-613" y="1305"/>
      <point x="-634" y="1281" type="curve" smooth="yes"/>
      <point x="-640" y="1276"/>
      <point x="-641" y="1269"/>
      <point x="-641" y="1264" type="curve" smooth="yes"/>
      <point x="-641" y="1258"/>
      <point x="-638" y="1251"/>
    </contour>
    <contour>
      <point x="-308" y="1249" type="curve" smooth="yes"/>
      <point x="-282" y="1215"/>
      <point x="-235" y="1173"/>
      <point x="-197" y="1152" type="curve" smooth="yes"/>
      <point x="-193" y="1149"/>
      <point x="-188" y="1147"/>
      <point x="-183" y="1147" type="curve" smooth="yes"/>
      <point x="-178" y="1147"/>
      <point x="-172" y="1151"/>
      <point x="-166" y="1154" type="curve"/>
      <point x="-142" y="1181"/>
      <point x="-102" y="1221"/>
      <point x="-81" y="1255" type="curve" smooth="yes"/>
      <point x="-77" y="1262"/>
      <point x="-72" y="1271"/>
      <point x="-72" y="1278" type="curve" smooth="yes"/>
      <point x="-72" y="1285"/>
      <point x="-77" y="1292"/>
      <point x="-84" y="1298" type="curve" smooth="yes"/>
      <point x="-111" y="1315"/>
      <point x="-159" y="1358"/>
      <point x="-186" y="1382" type="curve" smooth="yes"/>
      <point x="-193" y="1387"/>
      <point x="-197" y="1390"/>
      <point x="-204" y="1390" type="curve" smooth="yes"/>
      <point x="-212" y="1390"/>
      <point x="-219" y="1387"/>
      <point x="-224" y="1380" type="curve" smooth="yes"/>
      <point x="-238" y="1362"/>
      <point x="-287" y="1308"/>
      <point x="-310" y="1285" type="curve" smooth="yes"/>
      <point x="-315" y="1279"/>
      <point x="-315" y="1272"/>
      <point x="-315" y="1267" type="curve" smooth="yes"/>
      <point x="-315" y="1262"/>
      <point x="-312" y="1255"/>
    </contour>
  </outline>
</glyph>
<glyph name="uni0591" format="1">
  <advance width="0"/>
  <unicode hex="0591"/>
  <outline>
    <contour>
      <point x="270" y="-368" type="curve" smooth="yes"/>
      <point x="362" y="-368"/>
      <point x="371" y="-441"/>
      <point x="371" y="-506" type="curve" smooth="yes"/>
      <point x="371" y="-527"/>
      <point x="380" y="-532"/>
      <point x="396" y="-532" type="curve" smooth="yes"/>
      <point x="443" y="-532" type="line" smooth="yes"/>
      <point x="459" y="-532"/>
      <point x="472" y="-527"/>
      <point x="472" y="-509" type="curve" smooth="yes"/>
      <point x="470" y="-417"/>
      <point x="455" y="-317"/>
      <point x="328" y="-282" type="curve"/>
      <point x="315" y="-158" type="line" smooth="yes"/>
      <point x="313" y="-137"/>
      <point x="306" y="-131"/>
      <point x="291" y="-131" type="curve" smooth="yes"/>
      <point x="251" y="-131" type="line" smooth="yes"/>
      <point x="235" y="-131"/>
      <point x="228" y="-137"/>
      <point x="226" y="-158" type="curve" smooth="yes"/>
      <point x="214" y="-282" type="line"/>
      <point x="86" y="-317"/>
      <point x="72" y="-417"/>
      <point x="70" y="-509" type="curve" smooth="yes"/>
      <point x="70" y="-527"/>
      <point x="82" y="-532"/>
      <point x="99" y="-532" type="curve" smooth="yes"/>
      <point x="145" y="-532" type="line" smooth="yes"/>
      <point x="161" y="-532"/>
      <point x="171" y="-527"/>
      <point x="171" y="-506" type="curve" smooth="yes"/>
      <point x="171" y="-441"/>
      <point x="179" y="-368"/>
    </contour>
  </outline>
</glyph>
<glyph name="uni0593" format="1">
  <advance width="0"/>
  <unicode hex="0593"/>
  <outline>
    <contour>
      <point x="156" y="1247" type="curve" smooth="yes"/>
      <point x="207" y="1222"/>
      <point x="284" y="1192"/>
      <point x="342" y="1175" type="curve" smooth="yes"/>
      <point x="349" y="1173"/>
      <point x="359" y="1172"/>
      <point x="364" y="1172" type="curve" smooth="yes"/>
      <point x="369" y="1172"/>
      <point x="375" y="1173"/>
      <point x="376" y="1181" type="curve" smooth="yes"/>
      <point x="396" y="1236" type="line"/>
      <point x="396" y="1243"/>
      <point x="387" y="1247"/>
      <point x="382" y="1251" type="curve" smooth="yes"/>
      <point x="344" y="1267"/>
      <point x="301" y="1279"/>
      <point x="260" y="1298" type="curve"/>
      <point x="306" y="1315"/>
      <point x="346" y="1328"/>
      <point x="380" y="1344" type="curve" smooth="yes"/>
      <point x="389" y="1348"/>
      <point x="396" y="1356"/>
      <point x="396" y="1369" type="curve" smooth="yes"/>
      <point x="396" y="1419" type="line" smooth="yes"/>
      <point x="396" y="1426"/>
      <point x="395" y="1435"/>
      <point x="385" y="1439" type="curve" smooth="yes"/>
      <point x="339" y="1460"/>
      <point x="303" y="1471"/>
      <point x="260" y="1489" type="curve"/>
      <point x="292" y="1500"/>
      <point x="342" y="1520"/>
      <point x="380" y="1536" type="curve" smooth="yes"/>
      <point x="387" y="1539"/>
      <point x="395" y="1544"/>
      <point x="395" y="1554" type="curve" smooth="yes"/>
      <point x="395" y="1558"/>
      <point x="393" y="1565"/>
      <point x="390" y="1568" type="curve" smooth="yes"/>
      <point x="375" y="1606" type="line" smooth="yes"/>
      <point x="373" y="1611"/>
      <point x="368" y="1618"/>
      <point x="361" y="1618" type="curve" smooth="yes"/>
      <point x="355" y="1618"/>
      <point x="349" y="1614"/>
      <point x="344" y="1613" type="curve" smooth="yes"/>
      <point x="276" y="1588"/>
      <point x="224" y="1566"/>
      <point x="151" y="1536" type="curve" smooth="yes"/>
      <point x="140" y="1530"/>
      <point x="140" y="1522"/>
      <point x="140" y="1516" type="curve" smooth="yes"/>
      <point x="140" y="1462" type="line" smooth="yes"/>
      <point x="140" y="1452"/>
      <point x="147" y="1445"/>
      <point x="152" y="1443" type="curve" smooth="yes"/>
      <point x="181" y="1428"/>
      <point x="235" y="1411"/>
      <point x="276" y="1392" type="curve"/>
      <point x="228" y="1371"/>
      <point x="183" y="1360"/>
      <point x="149" y="1342" type="curve" smooth="yes"/>
      <point x="142" y="1339"/>
      <point x="140" y="1334"/>
      <point x="140" y="1324" type="curve" smooth="yes"/>
      <point x="140" y="1267" type="line" smooth="yes"/>
      <point x="140" y="1257"/>
      <point x="147" y="1251"/>
    </contour>
  </outline>
</glyph>
<glyph name="uni0595" format="1">
  <advance width="0"/>
  <unicode hex="0595"/>
  <outline>
    <contour>
      <point x="188" y="1544" type="curve" smooth="yes"/>
      <point x="188" y="1399"/>
      <point x="195" y="1279"/>
      <point x="199" y="1253" type="curve" smooth="yes"/>
      <point x="202" y="1231"/>
      <point x="208" y="1226"/>
      <point x="224" y="1226" type="curve" smooth="yes"/>
      <point x="267" y="1226" type="line" smooth="yes"/>
      <point x="284" y="1226"/>
      <point x="289" y="1231"/>
      <point x="292" y="1253" type="curve" smooth="yes"/>
      <point x="294" y="1264"/>
      <point x="303" y="1402"/>
      <point x="303" y="1546" type="curve" smooth="yes"/>
      <point x="303" y="1561"/>
      <point x="296" y="1575"/>
      <point x="276" y="1575" type="curve" smooth="yes"/>
      <point x="214" y="1575" type="line" smooth="yes"/>
      <point x="192" y="1575"/>
      <point x="188" y="1559"/>
    </contour>
    <contour>
      <point x="552" y="1509" type="curve" smooth="yes"/>
      <point x="552" y="1548"/>
      <point x="520" y="1580"/>
      <point x="479" y="1580" type="curve" smooth="yes"/>
      <point x="439" y="1580"/>
      <point x="407" y="1548"/>
      <point x="407" y="1509" type="curve" smooth="yes"/>
      <point x="407" y="1467"/>
      <point x="439" y="1435"/>
      <point x="479" y="1435" type="curve" smooth="yes"/>
      <point x="520" y="1435"/>
      <point x="552" y="1467"/>
    </contour>
    <contour>
      <point x="552" y="1286" type="curve" smooth="yes"/>
      <point x="552" y="1327"/>
      <point x="520" y="1358"/>
      <point x="479" y="1358" type="curve" smooth="yes"/>
      <point x="439" y="1358"/>
      <point x="407" y="1327"/>
      <point x="407" y="1286" type="curve" smooth="yes"/>
      <point x="407" y="1245"/>
      <point x="439" y="1213"/>
      <point x="479" y="1213" type="curve" smooth="yes"/>
      <point x="520" y="1213"/>
      <point x="552" y="1245"/>
    </contour>
  </outline>
</glyph>
<glyph name="uni0597" format="1">
  <advance width="0"/>
  <unicode hex="0597"/>
  <outline>
    <contour>
      <point x="93" y="1362" type="curve" smooth="yes"/>
      <point x="137" y="1303"/>
      <point x="163" y="1281"/>
      <point x="212" y="1242" type="curve" smooth="yes"/>
      <point x="217" y="1238"/>
      <point x="221" y="1236"/>
      <point x="224" y="1236" type="curve" smooth="yes"/>
      <point x="229" y="1236"/>
      <point x="236" y="1242"/>
      <point x="242" y="1247" type="curve" smooth="yes"/>
      <point x="276" y="1281"/>
      <point x="310" y="1317"/>
      <point x="342" y="1371" type="curve" smooth="yes"/>
      <point x="347" y="1380"/>
      <point x="351" y="1389"/>
      <point x="351" y="1392" type="curve" smooth="yes"/>
      <point x="351" y="1402"/>
      <point x="344" y="1407"/>
      <point x="339" y="1412" type="curve" smooth="yes"/>
      <point x="299" y="1446"/>
      <point x="255" y="1502"/>
      <point x="226" y="1534" type="curve" smooth="yes"/>
      <point x="219" y="1541"/>
      <point x="214" y="1544"/>
      <point x="210" y="1544" type="curve" smooth="yes"/>
      <point x="204" y="1544"/>
      <point x="197" y="1541"/>
      <point x="192" y="1532" type="curve" smooth="yes"/>
      <point x="151" y="1471"/>
      <point x="131" y="1443"/>
      <point x="97" y="1404" type="curve" smooth="yes"/>
      <point x="91" y="1396"/>
      <point x="84" y="1389"/>
      <point x="84" y="1382" type="curve" smooth="yes"/>
      <point x="84" y="1373"/>
      <point x="89" y="1368"/>
    </contour>
  </outline>
</glyph>
<glyph name="uni05A0" format="1">
  <advance width="0"/>
  <unicode hex="05A0"/>
  <outline>
    <contour>
      <point x="606" y="1441" type="curve" smooth="yes"/>
      <point x="606" y="1548"/>
      <point x="522" y="1635"/>
      <point x="414" y="1635" type="curve" smooth="yes"/>
      <point x="306" y="1635"/>
      <point x="221" y="1548"/>
      <point x="221" y="1441" type="curve" smooth="yes"/>
      <point x="221" y="1394"/>
      <point x="235" y="1353"/>
      <point x="262" y="1320" type="curve"/>
      <point x="236" y="1279"/>
      <point x="207" y="1229"/>
      <point x="204" y="1224" type="curve" smooth="yes"/>
      <point x="200" y="1217"/>
      <point x="197" y="1209"/>
      <point x="197" y="1204" type="curve" smooth="yes"/>
      <point x="197" y="1197"/>
      <point x="202" y="1192"/>
      <point x="210" y="1187" type="curve" smooth="yes"/>
      <point x="242" y="1165" type="line" smooth="yes"/>
      <point x="248" y="1161"/>
      <point x="251" y="1159"/>
      <point x="256" y="1159" type="curve" smooth="yes"/>
      <point x="262" y="1159"/>
      <point x="269" y="1163"/>
      <point x="277" y="1172" type="curve" smooth="yes"/>
      <point x="289" y="1183"/>
      <point x="323" y="1224"/>
      <point x="351" y="1258" type="curve"/>
      <point x="371" y="1253"/>
      <point x="393" y="1249"/>
      <point x="414" y="1249" type="curve" smooth="yes"/>
      <point x="522" y="1249"/>
      <point x="606" y="1334"/>
    </contour>
    <contour>
      <point x="518" y="1441" type="curve" smooth="yes"/>
      <point x="518" y="1385"/>
      <point x="472" y="1339"/>
      <point x="416" y="1339" type="curve" smooth="yes"/>
      <point x="359" y="1339"/>
      <point x="312" y="1385"/>
      <point x="312" y="1441" type="curve" smooth="yes"/>
      <point x="312" y="1498"/>
      <point x="359" y="1544"/>
      <point x="416" y="1544" type="curve" smooth="yes"/>
      <point x="472" y="1544"/>
      <point x="518" y="1498"/>
    </contour>
  </outline>
</glyph>
<glyph name="uni05A6" format="1">
  <advance width="0"/>
  <unicode hex="05A6"/>
  <outline>
    <contour>
      <point x="294" y="-523" type="curve" smooth="yes"/>
      <point x="434" y="-464"/>
      <point x="480" y="-332"/>
      <point x="480" y="-165" type="curve" smooth="yes"/>
      <point x="480" y="-144"/>
      <point x="470" y="-138"/>
      <point x="453" y="-138" type="curve" smooth="yes"/>
      <point x="410" y="-138" type="line" smooth="yes"/>
      <point x="395" y="-138"/>
      <point x="385" y="-144"/>
      <point x="385" y="-165" type="curve" smooth="yes"/>
      <point x="385" y="-313"/>
      <point x="344" y="-398"/>
      <point x="248" y="-432" type="curve" smooth="yes"/>
      <point x="236" y="-436"/>
      <point x="231" y="-443"/>
      <point x="231" y="-450" type="curve" smooth="yes"/>
      <point x="231" y="-455"/>
      <point x="235" y="-464"/>
      <point x="238" y="-470" type="curve"/>
      <point x="256" y="-515" type="line"/>
      <point x="262" y="-523"/>
      <point x="269" y="-529"/>
      <point x="277" y="-529" type="curve" smooth="yes"/>
      <point x="284" y="-529"/>
      <point x="287" y="-527"/>
    </contour>
    <contour>
      <point x="99" y="-494" type="curve" smooth="yes"/>
      <point x="256" y="-443"/>
      <point x="285" y="-332"/>
      <point x="285" y="-165" type="curve" smooth="yes"/>
      <point x="285" y="-144"/>
      <point x="274" y="-138"/>
      <point x="258" y="-138" type="curve" smooth="yes"/>
      <point x="215" y="-138" type="line" smooth="yes"/>
      <point x="199" y="-138"/>
      <point x="190" y="-144"/>
      <point x="190" y="-165" type="curve" smooth="yes"/>
      <point x="190" y="-313"/>
      <point x="165" y="-368"/>
      <point x="52" y="-403" type="curve" smooth="yes"/>
      <point x="41" y="-407"/>
      <point x="36" y="-414"/>
      <point x="36" y="-421" type="curve" smooth="yes"/>
      <point x="36" y="-426"/>
      <point x="39" y="-436"/>
      <point x="43" y="-441" type="curve"/>
      <point x="61" y="-486" type="line"/>
      <point x="67" y="-494"/>
      <point x="74" y="-500"/>
      <point x="82" y="-500" type="curve" smooth="yes"/>
      <point x="88" y="-500"/>
      <point x="91" y="-496"/>
    </contour>
  </outline>
</glyph>
<glyph name="uni05AC" format="1">
  <advance width="0"/>
  <unicode hex="05AC"/>
  <outline>
    <contour>
      <point x="417" y="1459" type="curve" smooth="yes"/>
      <point x="416" y="1481"/>
      <point x="409" y="1486"/>
      <point x="393" y="1486" type="curve" smooth="yes"/>
      <point x="349" y="1486" type="line" smooth="yes"/>
      <point x="333" y="1486"/>
      <point x="325" y="1481"/>
      <point x="325" y="1459" type="curve" smooth="yes"/>
      <point x="325" y="1407"/>
      <point x="323" y="1324"/>
      <point x="323" y="1274" type="curve" smooth="yes"/>
      <point x="323" y="1255"/>
      <point x="313" y="1251"/>
      <point x="306" y="1251" type="curve" smooth="yes"/>
      <point x="248" y="1249"/>
      <point x="149" y="1247"/>
      <point x="129" y="1243" type="curve" smooth="yes"/>
      <point x="111" y="1240"/>
      <point x="104" y="1231"/>
      <point x="104" y="1213" type="curve" smooth="yes"/>
      <point x="104" y="1172" type="line" smooth="yes"/>
      <point x="104" y="1158"/>
      <point x="108" y="1144"/>
      <point x="129" y="1144" type="curve" smooth="yes"/>
      <point x="166" y="1142"/>
      <point x="207" y="1142"/>
      <point x="244" y="1142" type="curve" smooth="yes"/>
      <point x="321" y="1142"/>
      <point x="359" y="1142"/>
      <point x="398" y="1145" type="curve" smooth="yes"/>
      <point x="416" y="1147"/>
      <point x="423" y="1158"/>
      <point x="423" y="1175" type="curve" smooth="yes"/>
      <point x="423" y="1278"/>
      <point x="423" y="1368"/>
    </contour>
  </outline>
</glyph>
<glyph name="hatafpatahhebrew" format="1">
  <advance width="0"/>
  <unicode hex="05B2"/>
  <outline>
    <contour>
      <point x="249" y="-244" type="curve" smooth="yes"/>
      <point x="192" y="-244"/>
      <point x="111" y="-242"/>
      <point x="72" y="-236" type="curve" smooth="yes"/>
      <point x="53" y="-233"/>
      <point x="45" y="-224"/>
      <point x="45" y="-207" type="curve" smooth="yes"/>
      <point x="45" y="-166" type="line" smooth="yes"/>
      <point x="45" y="-152"/>
      <point x="48" y="-138"/>
      <point x="72" y="-137" type="curve" smooth="yes"/>
      <point x="99" y="-135"/>
      <point x="178" y="-129"/>
      <point x="244" y="-129" type="curve" smooth="yes"/>
      <point x="303" y="-129"/>
      <point x="364" y="-133"/>
      <point x="423" y="-137" type="curve" smooth="yes"/>
      <point x="443" y="-138"/>
      <point x="450" y="-152"/>
      <point x="450" y="-166" type="curve" smooth="yes"/>
      <point x="450" y="-207" type="line" smooth="yes"/>
      <point x="450" y="-221"/>
      <point x="443" y="-233"/>
      <point x="424" y="-236" type="curve" smooth="yes"/>
      <point x="416" y="-238"/>
      <point x="328" y="-244"/>
    </contour>
    <contour>
      <point x="611" y="-116" type="curve" smooth="yes"/>
      <point x="570" y="-116"/>
      <point x="536" y="-149"/>
      <point x="536" y="-190" type="curve" smooth="yes"/>
      <point x="536" y="-231"/>
      <point x="570" y="-263"/>
      <point x="611" y="-263" type="curve" smooth="yes"/>
      <point x="650" y="-263"/>
      <point x="683" y="-231"/>
      <point x="683" y="-190" type="curve" smooth="yes"/>
      <point x="683" y="-149"/>
      <point x="650" y="-116"/>
    </contour>
    <contour>
      <point x="614" y="-339" type="curve" smooth="yes"/>
      <point x="573" y="-339"/>
      <point x="539" y="-371"/>
      <point x="539" y="-412" type="curve" smooth="yes"/>
      <point x="539" y="-453"/>
      <point x="573" y="-486"/>
      <point x="614" y="-486" type="curve" smooth="yes"/>
      <point x="655" y="-486"/>
      <point x="686" y="-453"/>
      <point x="686" y="-412" type="curve" smooth="yes"/>
      <point x="686" y="-371"/>
      <point x="655" y="-339"/>
    </contour>
  </outline>
</glyph>
<glyph name="tserehebrew" format="1">
  <advance width="0"/>
  <unicode hex="05B5"/>
  <outline>
    <contour>
      <point x="235" y="-226" type="curve" smooth="yes"/>
      <point x="235" y="-186"/>
      <point x="202" y="-152"/>
      <point x="163" y="-152" type="curve" smooth="yes"/>
      <point x="122" y="-152"/>
      <point x="89" y="-186"/>
      <point x="89" y="-226" type="curve" smooth="yes"/>
      <point x="89" y="-267"/>
      <point x="122" y="-299"/>
      <point x="163" y="-299" type="curve" smooth="yes"/>
      <point x="202" y="-299"/>
      <point x="235" y="-267"/>
    </contour>
    <contour>
      <point x="641" y="-226" type="curve" smooth="yes"/>
      <point x="641" y="-186"/>
      <point x="609" y="-152"/>
      <point x="570" y="-152" type="curve" smooth="yes"/>
      <point x="529" y="-152"/>
      <point x="496" y="-186"/>
      <point x="496" y="-226" type="curve" smooth="yes"/>
      <point x="496" y="-267"/>
      <point x="529" y="-299"/>
      <point x="570" y="-299" type="curve" smooth="yes"/>
      <point x="609" y="-299"/>
      <point x="641" y="-267"/>
    </contour>
  </outline>
</glyph>
<glyph name="afii67842" format="1">
  <advance width="585"/>
  <unicode hex="05C0"/>
  <outline>
    <contour>
      <point x="235" y="-63" type="curve" smooth="yes"/>
      <point x="235" y="-77"/>
      <point x="238" y="-93"/>
      <point x="260" y="-93" type="curve" smooth="yes"/>
      <point x="325" y="-93" type="line" smooth="yes"/>
      <point x="344" y="-93"/>
      <point x="351" y="-79"/>
      <point x="351" y="-65" type="curve" smooth="yes"/>
      <point x="359" y="256"/>
      <point x="362" y="383"/>
      <point x="362" y="498" type="curve" smooth="yes"/>
      <point x="362" y="645"/>
      <point x="357" y="853"/>
      <point x="351" y="1086" type="curve" smooth="yes"/>
      <point x="351" y="1100"/>
      <point x="344" y="1115"/>
      <point x="325" y="1115" type="curve" smooth="yes"/>
      <point x="260" y="1115" type="line" smooth="yes"/>
      <point x="238" y="1115"/>
      <point x="235" y="1098"/>
      <point x="235" y="1084" type="curve" smooth="yes"/>
      <point x="228" y="857"/>
      <point x="222" y="645"/>
      <point x="222" y="498" type="curve" smooth="yes"/>
      <point x="222" y="383"/>
      <point x="229" y="214"/>
    </contour>
  </outline>
</glyph>
<glyph name="afii57658" format="1">
  <advance width="696"/>
  <unicode hex="05C3"/>
  <outline>
    <contour>
      <point x="224" y="568" type="curve" smooth="yes"/>
      <point x="258" y="522"/>
      <point x="321" y="468"/>
      <point x="369" y="439" type="curve" smooth="yes"/>
      <point x="375" y="436"/>
      <point x="382" y="434"/>
      <point x="389" y="434" type="curve" smooth="yes"/>
      <point x="396" y="434"/>
      <point x="403" y="438"/>
      <point x="409" y="443" type="curve" smooth="yes"/>
      <point x="443" y="477"/>
      <point x="494" y="530"/>
      <point x="523" y="575" type="curve" smooth="yes"/>
      <point x="529" y="585"/>
      <point x="534" y="595"/>
      <point x="534" y="604" type="curve" smooth="yes"/>
      <point x="534" y="614"/>
      <point x="527" y="624"/>
      <point x="518" y="631" type="curve" smooth="yes"/>
      <point x="482" y="655"/>
      <point x="419" y="711"/>
      <point x="383" y="742" type="curve" smooth="yes"/>
      <point x="375" y="749"/>
      <point x="369" y="754"/>
      <point x="361" y="754" type="curve" smooth="yes"/>
      <point x="351" y="754"/>
      <point x="342" y="749"/>
      <point x="335" y="740" type="curve" smooth="yes"/>
      <point x="315" y="717"/>
      <point x="251" y="645"/>
      <point x="222" y="614" type="curve" smooth="yes"/>
      <point x="215" y="607"/>
      <point x="214" y="599"/>
      <point x="214" y="592" type="curve" smooth="yes"/>
      <point x="214" y="585"/>
      <point x="219" y="575"/>
    </contour>
    <contour>
      <point x="224" y="97" type="curve" smooth="yes"/>
      <point x="258" y="50"/>
      <point x="321" y="-4"/>
      <point x="369" y="-32" type="curve" smooth="yes"/>
      <point x="375" y="-36"/>
      <point x="382" y="-38"/>
      <point x="389" y="-38" type="curve" smooth="yes"/>
      <point x="396" y="-38"/>
      <point x="403" y="-34"/>
      <point x="409" y="-29" type="curve" smooth="yes"/>
      <point x="443" y="5"/>
      <point x="494" y="60"/>
      <point x="523" y="104" type="curve" smooth="yes"/>
      <point x="529" y="113"/>
      <point x="534" y="123"/>
      <point x="534" y="133" type="curve" smooth="yes"/>
      <point x="534" y="144"/>
      <point x="527" y="152"/>
      <point x="518" y="159" type="curve" smooth="yes"/>
      <point x="482" y="183"/>
      <point x="419" y="240"/>
      <point x="383" y="270" type="curve" smooth="yes"/>
      <point x="375" y="277"/>
      <point x="369" y="284"/>
      <point x="361" y="284" type="curve" smooth="yes"/>
      <point x="351" y="284"/>
      <point x="342" y="277"/>
      <point x="335" y="269" type="curve" smooth="yes"/>
      <point x="315" y="246"/>
      <point x="251" y="174"/>
      <point x="222" y="144" type="curve" smooth="yes"/>
      <point x="215" y="137"/>
      <point x="214" y="127"/>
      <point x="214" y="120" type="curve" smooth="yes"/>
      <point x="214" y="113"/>
      <point x="219" y="104"/>
    </contour>
  </outline>
</glyph>
<glyph name="uni05C4" format="1">
  <advance width="0"/>
  <unicode hex="05C4"/>
  <outline>
    <contour>
      <point x="276" y="1199" type="curve" smooth="yes"/>
      <point x="276" y="1240"/>
      <point x="242" y="1272"/>
      <point x="202" y="1272" type="curve" smooth="yes"/>
      <point x="161" y="1272"/>
      <point x="129" y="1240"/>
      <point x="129" y="1199" type="curve" smooth="yes"/>
      <point x="129" y="1159"/>
      <point x="161" y="1127"/>
      <point x="202" y="1127" type="curve" smooth="yes"/>
      <point x="242" y="1127"/>
      <point x="276" y="1159"/>
    </contour>
  </outline>
</glyph>
<glyph name="lamedhebrew" format="1">
  <advance width="1016"/>
  <unicode hex="05DC"/>
  <outline>
    <contour>
      <point x="279" y="190" type="curve" smooth="yes"/>
      <point x="256" y="152"/>
      <point x="188" y="9"/>
      <point x="188" y="-14" type="curve" smooth="yes"/>
      <point x="188" y="-29"/>
      <point x="195" y="-36"/>
      <point x="210" y="-36" type="curve" smooth="yes"/>
      <point x="255" y="-36"/>
      <point x="398" y="12"/>
      <point x="462" y="41" type="curve" smooth="yes"/>
      <point x="629" y="115"/>
      <point x="763" y="284"/>
      <point x="838" y="491" type="curve" smooth="yes"/>
      <point x="869" y="577"/>
      <point x="901" y="713"/>
      <point x="901" y="809" type="curve" smooth="yes"/>
      <point x="901" y="910"/>
      <point x="874" y="989"/>
      <point x="767" y="989" type="curve" smooth="yes"/>
      <point x="366" y="989" type="line" smooth="yes"/>
      <point x="279" y="989"/>
      <point x="277" y="1004"/>
      <point x="277" y="1163" type="curve" smooth="yes"/>
      <point x="277" y="1228"/>
      <point x="267" y="1296"/>
      <point x="253" y="1337" type="curve" smooth="yes"/>
      <point x="244" y="1364"/>
      <point x="229" y="1376"/>
      <point x="219" y="1376" type="curve" smooth="yes"/>
      <point x="210" y="1376"/>
      <point x="200" y="1369"/>
      <point x="186" y="1353" type="curve" smooth="yes"/>
      <point x="149" y="1312"/>
      <point x="88" y="1233"/>
      <point x="75" y="1213" type="curve" smooth="yes"/>
      <point x="70" y="1204"/>
      <point x="67" y="1195"/>
      <point x="67" y="1188" type="curve" smooth="yes"/>
      <point x="67" y="1178"/>
      <point x="72" y="1158"/>
      <point x="81" y="1134" type="curve" smooth="yes"/>
      <point x="99" y="1088"/>
      <point x="115" y="1023"/>
      <point x="115" y="975" type="curve" smooth="yes"/>
      <point x="115" y="787"/>
      <point x="140" y="754"/>
      <point x="246" y="754" type="curve" smooth="yes"/>
      <point x="620" y="754" type="line" smooth="yes"/>
      <point x="676" y="754"/>
      <point x="708" y="718"/>
      <point x="708" y="624" type="curve" smooth="yes"/>
      <point x="708" y="537"/>
      <point x="686" y="434"/>
      <point x="624" y="368" type="curve" smooth="yes"/>
      <point x="564" y="305"/>
      <point x="441" y="249"/>
      <point x="344" y="226" type="curve" smooth="yes"/>
      <point x="301" y="215"/>
      <point x="291" y="208"/>
    </contour>
  </outline>
</glyph>
<glyph name="finalnunhebrew" format="1">
  <advance width="730"/>
  <unicode hex="05DF"/>
  <outline>
    <contour>
      <point x="436" y="-378" type="curve" smooth="yes"/>
      <point x="436" y="-403"/>
      <point x="439" y="-412"/>
      <point x="450" y="-412" type="curve" smooth="yes"/>
      <point x="457" y="-412"/>
      <point x="468" y="-405"/>
      <point x="480" y="-390" type="curve" smooth="yes"/>
      <point x="506" y="-362"/>
      <point x="545" y="-312"/>
      <point x="573" y="-269" type="curve" smooth="yes"/>
      <point x="588" y="-248"/>
      <point x="592" y="-222"/>
      <point x="592" y="-200" type="curve" smooth="yes"/>
      <point x="592" y="16"/>
      <point x="585" y="417"/>
      <point x="573" y="647" type="curve" smooth="yes"/>
      <point x="568" y="758"/>
      <point x="556" y="848"/>
      <point x="480" y="914" type="curve" smooth="yes"/>
      <point x="434" y="956"/>
      <point x="373" y="1002"/>
      <point x="289" y="1062" type="curve" smooth="yes"/>
      <point x="269" y="1077"/>
      <point x="256" y="1081"/>
      <point x="253" y="1081" type="curve" smooth="yes"/>
      <point x="244" y="1081"/>
      <point x="236" y="1077"/>
      <point x="224" y="1059" type="curve" smooth="yes"/>
      <point x="193" y="1016"/>
      <point x="142" y="949"/>
      <point x="118" y="910" type="curve" smooth="yes"/>
      <point x="108" y="893"/>
      <point x="102" y="882"/>
      <point x="102" y="876" type="curve" smooth="yes"/>
      <point x="102" y="867"/>
      <point x="106" y="860"/>
      <point x="120" y="850" type="curve" smooth="yes"/>
      <point x="165" y="816"/>
      <point x="269" y="756"/>
      <point x="339" y="690" type="curve" smooth="yes"/>
      <point x="417" y="614"/>
      <point x="412" y="450"/>
      <point x="421" y="197" type="curve" smooth="yes"/>
      <point x="426" y="43"/>
      <point x="434" y="-186"/>
    </contour>
  </outline>
</glyph>
<glyph name="finalpehebrew" format="1">
  <advance width="1016"/>
  <unicode hex="05E3"/>
  <outline>
    <contour>
      <point x="742" y="-398" type="curve" smooth="yes"/>
      <point x="744" y="-407"/>
      <point x="751" y="-409"/>
      <point x="758" y="-409" type="curve" smooth="yes"/>
      <point x="767" y="-409"/>
      <point x="776" y="-398"/>
      <point x="785" y="-383" type="curve" smooth="yes"/>
      <point x="794" y="-369"/>
      <point x="855" y="-256"/>
      <point x="864" y="-240" type="curve" smooth="yes"/>
      <point x="879" y="-214"/>
      <point x="884" y="-174"/>
      <point x="884" y="-122" type="curve" smooth="yes"/>
      <point x="884" y="120"/>
      <point x="874" y="346"/>
      <point x="867" y="563" type="curve" smooth="yes"/>
      <point x="862" y="730"/>
      <point x="835" y="846"/>
      <point x="718" y="934" type="curve" smooth="yes"/>
      <point x="633" y="997"/>
      <point x="500" y="1047"/>
      <point x="428" y="1072" type="curve" smooth="yes"/>
      <point x="405" y="1081"/>
      <point x="402" y="1081"/>
      <point x="383" y="1081" type="curve" smooth="yes"/>
      <point x="371" y="1081"/>
      <point x="362" y="1072"/>
      <point x="347" y="1061" type="curve" smooth="yes"/>
      <point x="215" y="957"/>
      <point x="89" y="780"/>
      <point x="89" y="655" type="curve" smooth="yes"/>
      <point x="89" y="511"/>
      <point x="171" y="398"/>
      <point x="289" y="339" type="curve" smooth="yes"/>
      <point x="303" y="332"/>
      <point x="313" y="328"/>
      <point x="321" y="328" type="curve" smooth="yes"/>
      <point x="332" y="328"/>
      <point x="337" y="335"/>
      <point x="347" y="349" type="curve" smooth="yes"/>
      <point x="369" y="378"/>
      <point x="416" y="453"/>
      <point x="428" y="484" type="curve"/>
      <point x="428" y="486"/>
      <point x="434" y="500"/>
      <point x="434" y="503" type="curve" smooth="yes"/>
      <point x="434" y="509"/>
      <point x="431" y="516"/>
      <point x="426" y="518" type="curve" smooth="yes"/>
      <point x="339" y="556"/>
      <point x="270" y="617"/>
      <point x="270" y="706" type="curve" smooth="yes"/>
      <point x="270" y="740"/>
      <point x="285" y="792"/>
      <point x="306" y="831" type="curve" smooth="yes"/>
      <point x="310" y="837"/>
      <point x="313" y="838"/>
      <point x="319" y="838" type="curve"/>
      <point x="423" y="810"/>
      <point x="532" y="758"/>
      <point x="577" y="725" type="curve" smooth="yes"/>
      <point x="643" y="679"/>
      <point x="684" y="614"/>
      <point x="694" y="513" type="curve" smooth="yes"/>
      <point x="718" y="217"/>
      <point x="735" y="-349"/>
    </contour>
  </outline>
</glyph>
<glyph name="finaltsadihebrew" format="1">
  <advance width="1018"/>
  <unicode hex="05E5"/>
  <outline>
    <contour>
      <point x="460" y="462" type="curve" smooth="yes"/>
      <point x="619" y="228"/>
      <point x="756" y="-115"/>
      <point x="819" y="-385" type="curve" smooth="yes"/>
      <point x="824" y="-405"/>
      <point x="828" y="-412"/>
      <point x="841" y="-412" type="curve" smooth="yes"/>
      <point x="851" y="-412"/>
      <point x="860" y="-398"/>
      <point x="871" y="-376" type="curve" smooth="yes"/>
      <point x="901" y="-323"/>
      <point x="932" y="-228"/>
      <point x="930" y="-236" type="curve" smooth="yes"/>
      <point x="928" y="-242"/>
      <point x="937" y="-207"/>
      <point x="937" y="-199" type="curve" smooth="yes"/>
      <point x="937" y="-174"/>
      <point x="935" y="-166"/>
      <point x="927" y="-131" type="curve" smooth="yes"/>
      <point x="886" y="36"/>
      <point x="816" y="255"/>
      <point x="730" y="417" type="curve" smooth="yes"/>
      <point x="727" y="421"/>
      <point x="725" y="426"/>
      <point x="725" y="434" type="curve" smooth="yes"/>
      <point x="725" y="439"/>
      <point x="732" y="452"/>
      <point x="742" y="462" type="curve" smooth="yes"/>
      <point x="833" y="557"/>
      <point x="907" y="669"/>
      <point x="907" y="810" type="curve" smooth="yes"/>
      <point x="907" y="900"/>
      <point x="886" y="1002"/>
      <point x="862" y="1050" type="curve" smooth="yes"/>
      <point x="853" y="1070"/>
      <point x="844" y="1081"/>
      <point x="833" y="1081" type="curve" smooth="yes"/>
      <point x="826" y="1081"/>
      <point x="816" y="1075"/>
      <point x="803" y="1061" type="curve" smooth="yes"/>
      <point x="754" y="1007"/>
      <point x="683" y="894"/>
      <point x="681" y="893" type="curve"/>
      <point x="679" y="884"/>
      <point x="667" y="872"/>
      <point x="667" y="857" type="curve" smooth="yes"/>
      <point x="667" y="846"/>
      <point x="672" y="838"/>
      <point x="684" y="814" type="curve" smooth="yes"/>
      <point x="704" y="774"/>
      <point x="715" y="715"/>
      <point x="715" y="669" type="curve" smooth="yes"/>
      <point x="715" y="606"/>
      <point x="681" y="536"/>
      <point x="669" y="536" type="curve" smooth="yes"/>
      <point x="663" y="536"/>
      <point x="660" y="541"/>
      <point x="655" y="550" type="curve" smooth="yes"/>
      <point x="563" y="708"/>
      <point x="428" y="896"/>
      <point x="258" y="1067" type="curve" smooth="yes"/>
      <point x="244" y="1081"/>
      <point x="238" y="1081"/>
      <point x="228" y="1081" type="curve" smooth="yes"/>
      <point x="221" y="1081"/>
      <point x="214" y="1074"/>
      <point x="200" y="1057" type="curve" smooth="yes"/>
      <point x="174" y="1021"/>
      <point x="138" y="968"/>
      <point x="109" y="921" type="curve" smooth="yes"/>
      <point x="99" y="905"/>
      <point x="93" y="891"/>
      <point x="93" y="884" type="curve" smooth="yes"/>
      <point x="93" y="871"/>
      <point x="102" y="864"/>
      <point x="118" y="851" type="curve" smooth="yes"/>
      <point x="214" y="778"/>
      <point x="368" y="600"/>
    </contour>
  </outline>
</glyph>
<glyph name="tsadihebrew" format="1">
  <advance width="1016"/>
  <unicode hex="05E6"/>
  <outline>
    <contour>
      <point x="172" y="207" type="curve" smooth="yes"/>
      <point x="154" y="179"/>
      <point x="109" y="102"/>
      <point x="86" y="53" type="curve" smooth="yes"/>
      <point x="79" y="39"/>
      <point x="77" y="29"/>
      <point x="77" y="20" type="curve" smooth="yes"/>
      <point x="77" y="7"/>
      <point x="88" y="0"/>
      <point x="109" y="0" type="curve" smooth="yes"/>
      <point x="742" y="0" type="line" smooth="yes"/>
      <point x="769" y="0"/>
      <point x="783" y="2"/>
      <point x="799" y="25" type="curve" smooth="yes"/>
      <point x="844" y="95"/>
      <point x="874" y="161"/>
      <point x="893" y="214" type="curve" smooth="yes"/>
      <point x="901" y="242"/>
      <point x="908" y="267"/>
      <point x="908" y="284" type="curve" smooth="yes"/>
      <point x="908" y="303"/>
      <point x="900" y="328"/>
      <point x="880" y="355" type="curve" smooth="yes"/>
      <point x="857" y="387"/>
      <point x="823" y="423"/>
      <point x="760" y="487" type="curve" smooth="yes"/>
      <point x="751" y="498"/>
      <point x="747" y="503"/>
      <point x="747" y="509" type="curve" smooth="yes"/>
      <point x="747" y="520"/>
      <point x="753" y="525"/>
      <point x="760" y="534" type="curve" smooth="yes"/>
      <point x="848" y="652"/>
      <point x="900" y="753"/>
      <point x="900" y="869" type="curve" smooth="yes"/>
      <point x="900" y="959"/>
      <point x="874" y="1016"/>
      <point x="855" y="1050" type="curve" smooth="yes"/>
      <point x="843" y="1072"/>
      <point x="831" y="1081"/>
      <point x="826" y="1081" type="curve" smooth="yes"/>
      <point x="812" y="1081"/>
      <point x="803" y="1072"/>
      <point x="785" y="1048" type="curve" smooth="yes"/>
      <point x="754" y="1009"/>
      <point x="708" y="956"/>
      <point x="676" y="912" type="curve" smooth="yes"/>
      <point x="658" y="889"/>
      <point x="656" y="876"/>
      <point x="656" y="864" type="curve" smooth="yes"/>
      <point x="656" y="855"/>
      <point x="665" y="844"/>
      <point x="674" y="821" type="curve" smooth="yes"/>
      <point x="683" y="797"/>
      <point x="690" y="763"/>
      <point x="690" y="701" type="curve" smooth="yes"/>
      <point x="690" y="672"/>
      <point x="686" y="648"/>
      <point x="674" y="619" type="curve" smooth="yes"/>
      <point x="669" y="606"/>
      <point x="660" y="595"/>
      <point x="650" y="595" type="curve" smooth="yes"/>
      <point x="645" y="595"/>
      <point x="641" y="597"/>
      <point x="636" y="600" type="curve" smooth="yes"/>
      <point x="472" y="730"/>
      <point x="323" y="882"/>
      <point x="260" y="1059" type="curve" smooth="yes"/>
      <point x="256" y="1070"/>
      <point x="249" y="1081"/>
      <point x="238" y="1081" type="curve" smooth="yes"/>
      <point x="231" y="1081"/>
      <point x="224" y="1074"/>
      <point x="210" y="1057" type="curve" smooth="yes"/>
      <point x="181" y="1025"/>
      <point x="142" y="971"/>
      <point x="97" y="908" type="curve" smooth="yes"/>
      <point x="84" y="891"/>
      <point x="81" y="879"/>
      <point x="81" y="867" type="curve" smooth="yes"/>
      <point x="81" y="855"/>
      <point x="88" y="838"/>
      <point x="101" y="819" type="curve" smooth="yes"/>
      <point x="122" y="785"/>
      <point x="154" y="746"/>
      <point x="171" y="725" type="curve" smooth="yes"/>
      <point x="246" y="634"/>
      <point x="568" y="369"/>
      <point x="631" y="313" type="curve" smooth="yes"/>
      <point x="665" y="282"/>
      <point x="677" y="272"/>
      <point x="677" y="249" type="curve" smooth="yes"/>
      <point x="677" y="236"/>
      <point x="665" y="235"/>
      <point x="652" y="235" type="curve" smooth="yes"/>
      <point x="221" y="235" type="line" smooth="yes"/>
      <point x="195" y="235"/>
      <point x="181" y="219"/>
    </contour>
  </outline>
</glyph>
<glyph name="afii57717" format="1">
  <advance width="1337"/>
  <unicode hex="05F1"/>
  <outline>
    <contour>
      <point x="982" y="593" type="curve" smooth="yes"/>
      <point x="1002" y="466"/>
      <point x="1016" y="145"/>
      <point x="1016" y="-9" type="curve" smooth="yes"/>
      <point x="1016" y="-27"/>
      <point x="1023" y="-46"/>
      <point x="1038" y="-46" type="curve" smooth="yes"/>
      <point x="1047" y="-46"/>
      <point x="1054" y="-41"/>
      <point x="1062" y="-31" type="curve" smooth="yes"/>
      <point x="1086" y="-2"/>
      <point x="1134" y="65"/>
      <point x="1159" y="111" type="curve" smooth="yes"/>
      <point x="1172" y="135"/>
      <point x="1178" y="158"/>
      <point x="1178" y="181" type="curve" smooth="yes"/>
      <point x="1178" y="472"/>
      <point x="1178" y="588"/>
      <point x="1170" y="706" type="curve" smooth="yes"/>
      <point x="1165" y="801"/>
      <point x="1134" y="860"/>
      <point x="1091" y="901" type="curve" smooth="yes"/>
      <point x="1031" y="963"/>
      <point x="944" y="1029"/>
      <point x="893" y="1067" type="curve" smooth="yes"/>
      <point x="880" y="1075"/>
      <point x="872" y="1079"/>
      <point x="867" y="1079" type="curve" smooth="yes"/>
      <point x="862" y="1079"/>
      <point x="855" y="1075"/>
      <point x="848" y="1068" type="curve" smooth="yes"/>
      <point x="810" y="1031"/>
      <point x="756" y="961"/>
      <point x="715" y="898" type="curve" smooth="yes"/>
      <point x="708" y="887"/>
      <point x="704" y="879"/>
      <point x="704" y="869" type="curve" smooth="yes"/>
      <point x="704" y="858"/>
      <point x="711" y="853"/>
      <point x="722" y="846" type="curve" smooth="yes"/>
      <point x="765" y="817"/>
      <point x="853" y="769"/>
      <point x="918" y="711" type="curve" smooth="yes"/>
      <point x="959" y="674"/>
      <point x="977" y="627"/>
    </contour>
    <contour>
      <point x="285" y="306" type="curve" smooth="yes"/>
      <point x="282" y="299"/>
      <point x="270" y="279"/>
      <point x="270" y="272" type="curve" smooth="yes"/>
      <point x="270" y="263"/>
      <point x="277" y="260"/>
      <point x="284" y="260" type="curve" smooth="yes"/>
      <point x="291" y="260"/>
      <point x="305" y="265"/>
      <point x="319" y="272" type="curve" smooth="yes"/>
      <point x="355" y="292"/>
      <point x="403" y="325"/>
      <point x="434" y="347" type="curve" smooth="yes"/>
      <point x="466" y="373"/>
      <point x="484" y="387"/>
      <point x="513" y="431" type="curve" smooth="yes"/>
      <point x="564" y="509"/>
      <point x="627" y="619"/>
      <point x="627" y="699" type="curve" smooth="yes"/>
      <point x="627" y="751"/>
      <point x="611" y="799"/>
      <point x="571" y="843" type="curve" smooth="yes"/>
      <point x="508" y="914"/>
      <point x="362" y="1021"/>
      <point x="269" y="1075" type="curve" smooth="yes"/>
      <point x="265" y="1077"/>
      <point x="262" y="1079"/>
      <point x="255" y="1079" type="curve" smooth="yes"/>
      <point x="249" y="1079"/>
      <point x="242" y="1075"/>
      <point x="229" y="1062" type="curve" smooth="yes"/>
      <point x="197" y="1031"/>
      <point x="120" y="918"/>
      <point x="102" y="889" type="curve" smooth="yes"/>
      <point x="97" y="882"/>
      <point x="93" y="872"/>
      <point x="93" y="867" type="curve" smooth="yes"/>
      <point x="93" y="860"/>
      <point x="97" y="853"/>
      <point x="106" y="846" type="curve" smooth="yes"/>
      <point x="166" y="803"/>
      <point x="299" y="727"/>
      <point x="361" y="665" type="curve" smooth="yes"/>
      <point x="393" y="631"/>
      <point x="400" y="593"/>
      <point x="400" y="563" type="curve" smooth="yes"/>
      <point x="400" y="500"/>
      <point x="323" y="378"/>
    </contour>
  </outline>
</glyph>
<glyph name="uni05F4" format="1">
  <advance width="722"/>
  <unicode hex="05F4"/>
  <outline>
    <contour>
      <point x="287" y="1192" type="curve" smooth="yes"/>
      <point x="274" y="1187"/>
      <point x="260" y="1172"/>
      <point x="246" y="1152" type="curve" smooth="yes"/>
      <point x="138" y="1009"/>
      <point x="50" y="841"/>
      <point x="50" y="824" type="curve" smooth="yes"/>
      <point x="50" y="809"/>
      <point x="67" y="797"/>
      <point x="79" y="797" type="curve" smooth="yes"/>
      <point x="125" y="797"/>
      <point x="303" y="954"/>
      <point x="328" y="998" type="curve" smooth="yes"/>
      <point x="359" y="1052"/>
      <point x="373" y="1082"/>
      <point x="376" y="1131" type="curve" smooth="yes"/>
      <point x="376" y="1147" type="line" smooth="yes"/>
      <point x="376" y="1178"/>
      <point x="373" y="1195"/>
      <point x="340" y="1195" type="curve" smooth="yes"/>
      <point x="313" y="1195" type="line" smooth="yes"/>
      <point x="303" y="1195"/>
      <point x="294" y="1194"/>
    </contour>
    <contour>
      <point x="568" y="1194" type="curve"/>
      <point x="554" y="1187"/>
      <point x="539" y="1173"/>
      <point x="525" y="1154" type="curve" smooth="yes"/>
      <point x="431" y="1029"/>
      <point x="333" y="857"/>
      <point x="333" y="835" type="curve"/>
      <point x="332" y="830"/>
      <point x="332" y="826"/>
      <point x="332" y="823" type="curve" smooth="yes"/>
      <point x="332" y="805"/>
      <point x="344" y="795"/>
      <point x="359" y="795" type="curve" smooth="yes"/>
      <point x="434" y="795"/>
      <point x="619" y="1012"/>
      <point x="620" y="1016" type="curve" smooth="yes"/>
      <point x="638" y="1048"/>
      <point x="655" y="1084"/>
      <point x="658" y="1132" type="curve" smooth="yes"/>
      <point x="658" y="1149" type="line" smooth="yes"/>
      <point x="658" y="1181"/>
      <point x="650" y="1197"/>
      <point x="622" y="1197" type="curve" smooth="yes"/>
      <point x="613" y="1197" type="line" smooth="yes"/>
      <point x="597" y="1197"/>
      <point x="581" y="1195"/>
    </contour>
  </outline>
</glyph>
<glyph name="endash" format="1">
  <advance width="1002"/>
  <unicode hex="2013"/>
  <outline>
    <contour>
      <point x="207" y="557" type="curve" smooth="yes"/>
      <point x="179" y="525"/>
      <point x="156" y="489"/>
      <point x="138" y="460" type="curve" smooth="yes"/>
      <point x="135" y="453"/>
      <point x="129" y="445"/>
      <point x="129" y="432" type="curve" smooth="yes"/>
      <point x="129" y="414"/>
      <point x="145" y="409"/>
      <point x="165" y="409" type="curve" smooth="yes"/>
      <point x="231" y="409"/>
      <point x="690" y="409"/>
      <point x="753" y="409" type="curve" smooth="yes"/>
      <point x="776" y="409"/>
      <point x="788" y="414"/>
      <point x="805" y="436" type="curve" smooth="yes"/>
      <point x="831" y="468"/>
      <point x="843" y="491"/>
      <point x="862" y="529" type="curve" smooth="yes"/>
      <point x="867" y="537"/>
      <point x="871" y="550"/>
      <point x="871" y="557" type="curve" smooth="yes"/>
      <point x="871" y="577"/>
      <point x="858" y="585"/>
      <point x="833" y="585" type="curve" smooth="yes"/>
      <point x="267" y="585" type="line" smooth="yes"/>
      <point x="242" y="585"/>
      <point x="226" y="579"/>
    </contour>
  </outline>
</glyph>
<glyph name="emdash" format="1">
  <advance width="1204"/>
  <unicode hex="2014"/>
  <outline>
    <contour>
      <point x="207" y="557" type="curve" smooth="yes"/>
      <point x="179" y="525"/>
      <point x="158" y="496"/>
      <point x="142" y="468" type="curve" smooth="yes"/>
      <point x="138" y="460"/>
      <point x="129" y="445"/>
      <point x="129" y="432" type="curve" smooth="yes"/>
      <point x="129" y="414"/>
      <point x="145" y="409"/>
      <point x="165" y="409" type="curve" smooth="yes"/>
      <point x="231" y="409"/>
      <point x="893" y="409"/>
      <point x="956" y="409" type="curve" smooth="yes"/>
      <point x="978" y="409"/>
      <point x="991" y="414"/>
      <point x="1007" y="436" type="curve" smooth="yes"/>
      <point x="1033" y="468"/>
      <point x="1043" y="489"/>
      <point x="1062" y="525" type="curve" smooth="yes"/>
      <point x="1070" y="537"/>
      <point x="1074" y="550"/>
      <point x="1074" y="559" type="curve" smooth="yes"/>
      <point x="1074" y="579"/>
      <point x="1061" y="585"/>
      <point x="1036" y="585" type="curve" smooth="yes"/>
      <point x="267" y="585" type="line" smooth="yes"/>
      <point x="242" y="585"/>
      <point x="226" y="579"/>
    </contour>
  </outline>
</glyph>
<glyph name="quoteleft" format="1">
  <advance width="611"/>
  <unicode hex="2018"/>
  <outline>
    <contour>
      <point x="460" y="1038" type="curve" smooth="yes"/>
      <point x="472" y="1070"/>
      <point x="477" y="1082"/>
      <point x="477" y="1096" type="curve" smooth="yes"/>
      <point x="477" y="1110"/>
      <point x="470" y="1122"/>
      <point x="457" y="1122" type="curve" smooth="yes"/>
      <point x="438" y="1122"/>
      <point x="419" y="1104"/>
      <point x="400" y="1084" type="curve" smooth="yes"/>
      <point x="332" y="1016"/>
      <point x="282" y="930"/>
      <point x="238" y="853" type="curve" smooth="yes"/>
      <point x="195" y="776"/>
      <point x="165" y="686"/>
      <point x="165" y="627" type="curve" smooth="yes"/>
      <point x="165" y="579"/>
      <point x="176" y="523"/>
      <point x="193" y="487" type="curve" smooth="yes"/>
      <point x="204" y="466"/>
      <point x="217" y="450"/>
      <point x="228" y="450" type="curve" smooth="yes"/>
      <point x="244" y="450"/>
      <point x="253" y="453"/>
      <point x="267" y="468" type="curve" smooth="yes"/>
      <point x="317" y="518"/>
      <point x="351" y="550"/>
      <point x="376" y="585" type="curve" smooth="yes"/>
      <point x="385" y="597"/>
      <point x="393" y="607"/>
      <point x="393" y="626" type="curve" smooth="yes"/>
      <point x="393" y="647"/>
      <point x="385" y="679"/>
      <point x="385" y="724" type="curve" smooth="yes"/>
      <point x="385" y="831"/>
      <point x="431" y="948"/>
    </contour>
  </outline>
</glyph>
<glyph name="quotedblright" format="1">
  <advance width="1007"/>
  <unicode hex="201D"/>
  <outline>
    <contour>
      <point x="154" y="534" type="curve" smooth="yes"/>
      <point x="144" y="501"/>
      <point x="138" y="489"/>
      <point x="138" y="475" type="curve" smooth="yes"/>
      <point x="138" y="462"/>
      <point x="145" y="450"/>
      <point x="158" y="450" type="curve" smooth="yes"/>
      <point x="178" y="450"/>
      <point x="195" y="468"/>
      <point x="215" y="487" type="curve" smooth="yes"/>
      <point x="284" y="556"/>
      <point x="328" y="641"/>
      <point x="376" y="718" type="curve" smooth="yes"/>
      <point x="423" y="792"/>
      <point x="450" y="886"/>
      <point x="450" y="944" type="curve" smooth="yes"/>
      <point x="450" y="993"/>
      <point x="439" y="1048"/>
      <point x="421" y="1084" type="curve" smooth="yes"/>
      <point x="410" y="1106"/>
      <point x="398" y="1122"/>
      <point x="387" y="1122" type="curve" smooth="yes"/>
      <point x="371" y="1122"/>
      <point x="362" y="1118"/>
      <point x="347" y="1104" type="curve" smooth="yes"/>
      <point x="298" y="1054"/>
      <point x="263" y="1021"/>
      <point x="238" y="987" type="curve" smooth="yes"/>
      <point x="229" y="975"/>
      <point x="222" y="964"/>
      <point x="222" y="946" type="curve" smooth="yes"/>
      <point x="222" y="925"/>
      <point x="229" y="893"/>
      <point x="229" y="848" type="curve" smooth="yes"/>
      <point x="229" y="740"/>
      <point x="185" y="624"/>
    </contour>
    <contour>
      <point x="575" y="534" type="curve" smooth="yes"/>
      <point x="564" y="501"/>
      <point x="559" y="489"/>
      <point x="559" y="475" type="curve" smooth="yes"/>
      <point x="559" y="462"/>
      <point x="566" y="450"/>
      <point x="579" y="450" type="curve" smooth="yes"/>
      <point x="599" y="450"/>
      <point x="617" y="468"/>
      <point x="636" y="487" type="curve" smooth="yes"/>
      <point x="704" y="556"/>
      <point x="749" y="641"/>
      <point x="797" y="718" type="curve" smooth="yes"/>
      <point x="844" y="792"/>
      <point x="871" y="886"/>
      <point x="871" y="944" type="curve" smooth="yes"/>
      <point x="871" y="993"/>
      <point x="860" y="1048"/>
      <point x="843" y="1084" type="curve" smooth="yes"/>
      <point x="831" y="1106"/>
      <point x="819" y="1122"/>
      <point x="809" y="1122" type="curve" smooth="yes"/>
      <point x="792" y="1122"/>
      <point x="783" y="1118"/>
      <point x="769" y="1104" type="curve" smooth="yes"/>
      <point x="718" y="1054"/>
      <point x="684" y="1021"/>
      <point x="660" y="987" type="curve" smooth="yes"/>
      <point x="650" y="975"/>
      <point x="643" y="964"/>
      <point x="643" y="946" type="curve" smooth="yes"/>
      <point x="643" y="925"/>
      <point x="650" y="893"/>
      <point x="650" y="848" type="curve" smooth="yes"/>
      <point x="650" y="740"/>
      <point x="606" y="624"/>
    </contour>
  </outline>
</glyph>
<glyph name="dagger" format="1">
  <advance width="1059"/>
  <unicode hex="2020"/>
  <outline>
    <contour>
      <point x="568" y="262" type="curve"/>
      <point x="571" y="506"/>
      <point x="733" y="696"/>
      <point x="939" y="697" type="curve" smooth="yes"/>
      <point x="948" y="697"/>
      <point x="951" y="703"/>
      <point x="951" y="710" type="curve" smooth="yes"/>
      <point x="951" y="715"/>
      <point x="946" y="730"/>
      <point x="942" y="739" type="curve"/>
      <point x="879" y="893" type="line" smooth="yes"/>
      <point x="874" y="901"/>
      <point x="871" y="903"/>
      <point x="853" y="903" type="curve" smooth="yes"/>
      <point x="790" y="903"/>
      <point x="640" y="740"/>
      <point x="585" y="566" type="curve" smooth="yes"/>
      <point x="579" y="550"/>
      <point x="575" y="541"/>
      <point x="571" y="541" type="curve" smooth="yes"/>
      <point x="568" y="541"/>
      <point x="564" y="552"/>
      <point x="564" y="579" type="curve" smooth="yes"/>
      <point x="564" y="672"/>
      <point x="617" y="1029"/>
      <point x="617" y="1192" type="curve" smooth="yes"/>
      <point x="617" y="1213"/>
      <point x="613" y="1226"/>
      <point x="602" y="1226" type="curve" smooth="yes"/>
      <point x="595" y="1226"/>
      <point x="585" y="1219"/>
      <point x="564" y="1208" type="curve" smooth="yes"/>
      <point x="530" y="1190"/>
      <point x="470" y="1158"/>
      <point x="434" y="1131" type="curve" smooth="yes"/>
      <point x="426" y="1125"/>
      <point x="424" y="1118"/>
      <point x="424" y="1108" type="curve" smooth="yes"/>
      <point x="424" y="1023"/>
      <point x="493" y="672"/>
      <point x="493" y="579" type="curve" smooth="yes"/>
      <point x="493" y="552"/>
      <point x="491" y="539"/>
      <point x="487" y="539" type="curve" smooth="yes"/>
      <point x="484" y="539"/>
      <point x="479" y="550"/>
      <point x="472" y="566" type="curve" smooth="yes"/>
      <point x="393" y="761"/>
      <point x="267" y="903"/>
      <point x="204" y="903" type="curve" smooth="yes"/>
      <point x="186" y="903"/>
      <point x="183" y="900"/>
      <point x="179" y="893" type="curve" smooth="yes"/>
      <point x="113" y="735" type="line"/>
      <point x="109" y="727"/>
      <point x="106" y="717"/>
      <point x="106" y="711" type="curve" smooth="yes"/>
      <point x="106" y="704"/>
      <point x="109" y="697"/>
      <point x="118" y="697" type="curve" smooth="yes"/>
      <point x="310" y="697"/>
      <point x="489" y="498"/>
      <point x="489" y="260" type="curve" smooth="yes"/>
      <point x="489" y="133"/>
      <point x="453" y="-32"/>
      <point x="453" y="-46" type="curve" smooth="yes"/>
      <point x="453" y="-55"/>
      <point x="455" y="-68"/>
      <point x="457" y="-75" type="curve" smooth="yes"/>
      <point x="464" y="-111"/>
      <point x="501" y="-258"/>
      <point x="511" y="-292" type="curve" smooth="yes"/>
      <point x="515" y="-306"/>
      <point x="522" y="-312"/>
      <point x="530" y="-312" type="curve" smooth="yes"/>
      <point x="539" y="-312"/>
      <point x="547" y="-306"/>
      <point x="550" y="-292" type="curve" smooth="yes"/>
      <point x="597" y="-93" type="line" smooth="yes"/>
      <point x="600" y="-77"/>
      <point x="604" y="-63"/>
      <point x="604" y="-50" type="curve" smooth="yes"/>
      <point x="604" y="-34"/>
      <point x="568" y="135"/>
    </contour>
  </outline>
</glyph>
<glyph name="daggerdbl" format="1">
  <advance width="1059"/>
  <unicode hex="2021"/>
  <outline>
    <contour>
      <point x="876" y="368" type="curve" smooth="yes"/>
      <point x="886" y="368"/>
      <point x="889" y="373"/>
      <point x="889" y="378" type="curve" smooth="yes"/>
      <point x="889" y="383"/>
      <point x="886" y="395"/>
      <point x="882" y="403" type="curve" smooth="yes"/>
      <point x="826" y="545" type="line" smooth="yes"/>
      <point x="823" y="552"/>
      <point x="814" y="554"/>
      <point x="807" y="554" type="curve" smooth="yes"/>
      <point x="756" y="552"/>
      <point x="662" y="479"/>
      <point x="586" y="344" type="curve" smooth="yes"/>
      <point x="579" y="332"/>
      <point x="575" y="325"/>
      <point x="571" y="325" type="curve" smooth="yes"/>
      <point x="568" y="325"/>
      <point x="566" y="347"/>
      <point x="566" y="366" type="curve" smooth="yes"/>
      <point x="566" y="595"/>
      <point x="733" y="795"/>
      <point x="939" y="797" type="curve" smooth="yes"/>
      <point x="948" y="797"/>
      <point x="954" y="801"/>
      <point x="954" y="810" type="curve" smooth="yes"/>
      <point x="954" y="816"/>
      <point x="948" y="828"/>
      <point x="944" y="837" type="curve" smooth="yes"/>
      <point x="876" y="997" type="line" smooth="yes"/>
      <point x="872" y="1004"/>
      <point x="871" y="1005"/>
      <point x="864" y="1005" type="curve" smooth="yes"/>
      <point x="790" y="1000"/>
      <point x="665" y="865"/>
      <point x="585" y="658" type="curve" smooth="yes"/>
      <point x="581" y="647"/>
      <point x="575" y="638"/>
      <point x="571" y="638" type="curve" smooth="yes"/>
      <point x="568" y="638"/>
      <point x="564" y="647"/>
      <point x="564" y="667" type="curve" smooth="yes"/>
      <point x="564" y="760"/>
      <point x="614" y="1043"/>
      <point x="614" y="1199" type="curve" smooth="yes"/>
      <point x="614" y="1221"/>
      <point x="611" y="1226"/>
      <point x="606" y="1226" type="curve" smooth="yes"/>
      <point x="599" y="1226"/>
      <point x="590" y="1222"/>
      <point x="570" y="1211" type="curve" smooth="yes"/>
      <point x="537" y="1194"/>
      <point x="436" y="1131"/>
      <point x="436" y="1131" type="curve"/>
      <point x="428" y="1125"/>
      <point x="426" y="1122"/>
      <point x="426" y="1115" type="curve" smooth="yes"/>
      <point x="426" y="1018"/>
      <point x="493" y="760"/>
      <point x="493" y="667" type="curve" smooth="yes"/>
      <point x="493" y="647"/>
      <point x="489" y="638"/>
      <point x="486" y="638" type="curve" smooth="yes"/>
      <point x="482" y="638"/>
      <point x="477" y="647"/>
      <point x="473" y="658" type="curve" smooth="yes"/>
      <point x="403" y="865"/>
      <point x="267" y="1002"/>
      <point x="197" y="1005" type="curve" smooth="yes"/>
      <point x="186" y="1005"/>
      <point x="183" y="1002"/>
      <point x="179" y="995" type="curve" smooth="yes"/>
      <point x="115" y="841" type="line"/>
      <point x="109" y="830"/>
      <point x="106" y="817"/>
      <point x="106" y="812" type="curve" smooth="yes"/>
      <point x="106" y="805"/>
      <point x="109" y="797"/>
      <point x="118" y="797" type="curve" smooth="yes"/>
      <point x="312" y="797"/>
      <point x="493" y="595"/>
      <point x="493" y="366" type="curve" smooth="yes"/>
      <point x="493" y="346"/>
      <point x="493" y="325"/>
      <point x="489" y="325" type="curve" smooth="yes"/>
      <point x="486" y="325"/>
      <point x="482" y="332"/>
      <point x="473" y="344" type="curve" smooth="yes"/>
      <point x="378" y="484"/>
      <point x="305" y="545"/>
      <point x="255" y="547" type="curve" smooth="yes"/>
      <point x="248" y="547"/>
      <point x="238" y="545"/>
      <point x="235" y="537" type="curve" smooth="yes"/>
      <point x="179" y="395" type="line" smooth="yes"/>
      <point x="178" y="389"/>
      <point x="174" y="380"/>
      <point x="174" y="376" type="curve" smooth="yes"/>
      <point x="174" y="369"/>
      <point x="178" y="366"/>
      <point x="181" y="366" type="curve" smooth="yes"/>
      <point x="333" y="366"/>
      <point x="493" y="308"/>
      <point x="493" y="138" type="curve" smooth="yes"/>
      <point x="493" y="32"/>
      <point x="455" y="-88"/>
      <point x="455" y="-99" type="curve" smooth="yes"/>
      <point x="455" y="-106"/>
      <point x="459" y="-118"/>
      <point x="460" y="-125" type="curve" smooth="yes"/>
      <point x="511" y="-292" type="line" smooth="yes"/>
      <point x="515" y="-305"/>
      <point x="522" y="-310"/>
      <point x="530" y="-310" type="curve" smooth="yes"/>
      <point x="539" y="-310"/>
      <point x="547" y="-305"/>
      <point x="550" y="-292" type="curve" smooth="yes"/>
      <point x="600" y="-125" type="line" smooth="yes"/>
      <point x="604" y="-115"/>
      <point x="604" y="-106"/>
      <point x="604" y="-99" type="curve" smooth="yes"/>
      <point x="604" y="-86"/>
      <point x="570" y="32"/>
      <point x="570" y="138" type="curve" smooth="yes"/>
      <point x="570" y="308"/>
      <point x="724" y="368"/>
    </contour>
  </outline>
</glyph>
<glyph name="bullet" format="1">
  <advance width="650"/>
  <unicode hex="2022"/>
  <outline>
    <contour>
      <point x="138" y="382" type="curve" smooth="yes"/>
      <point x="176" y="344"/>
      <point x="258" y="272"/>
      <point x="321" y="233" type="curve" smooth="yes"/>
      <point x="328" y="228"/>
      <point x="340" y="224"/>
      <point x="347" y="224" type="curve" smooth="yes"/>
      <point x="359" y="224"/>
      <point x="369" y="231"/>
      <point x="376" y="238" type="curve" smooth="yes"/>
      <point x="414" y="282"/>
      <point x="462" y="346"/>
      <point x="501" y="403" type="curve" smooth="yes"/>
      <point x="506" y="409"/>
      <point x="509" y="419"/>
      <point x="509" y="426" type="curve" smooth="yes"/>
      <point x="509" y="441"/>
      <point x="501" y="455"/>
      <point x="491" y="460" type="curve" smooth="yes"/>
      <point x="441" y="487"/>
      <point x="373" y="537"/>
      <point x="323" y="590" type="curve" smooth="yes"/>
      <point x="313" y="599"/>
      <point x="306" y="604"/>
      <point x="296" y="604" type="curve" smooth="yes"/>
      <point x="285" y="604"/>
      <point x="272" y="597"/>
      <point x="265" y="588" type="curve" smooth="yes"/>
      <point x="253" y="575"/>
      <point x="149" y="448"/>
      <point x="137" y="432" type="curve" smooth="yes"/>
      <point x="127" y="421"/>
      <point x="125" y="412"/>
      <point x="125" y="405" type="curve" smooth="yes"/>
      <point x="125" y="396"/>
      <point x="133" y="387"/>
    </contour>
  </outline>
</glyph>
<glyph name="sheqelhebrew" format="1">
  <advance width="1579"/>
  <unicode hex="20AA"/>
  <outline>
    <contour>
      <point x="210" y="-29" type="curve" smooth="yes"/>
      <point x="210" y="-38"/>
      <point x="215" y="-45"/>
      <point x="224" y="-45" type="curve" smooth="yes"/>
      <point x="238" y="-45"/>
      <point x="251" y="-34"/>
      <point x="262" y="-18" type="curve" smooth="yes"/>
      <point x="284" y="14"/>
      <point x="319" y="75"/>
      <point x="340" y="115" type="curve" smooth="yes"/>
      <point x="369" y="169"/>
      <point x="369" y="200"/>
      <point x="369" y="258" type="curve" smooth="yes"/>
      <point x="369" y="472"/>
      <point x="353" y="634"/>
      <point x="353" y="722" type="curve" smooth="yes"/>
      <point x="353" y="746"/>
      <point x="364" y="763"/>
      <point x="390" y="763" type="curve" smooth="yes"/>
      <point x="701" y="763" type="line" smooth="yes"/>
      <point x="826" y="763"/>
      <point x="850" y="713"/>
      <point x="850" y="655" type="curve" smooth="yes"/>
      <point x="850" y="568"/>
      <point x="809" y="496"/>
      <point x="746" y="453" type="curve" smooth="yes"/>
      <point x="737" y="448"/>
      <point x="722" y="446"/>
      <point x="717" y="446" type="curve" smooth="yes"/>
      <point x="710" y="446"/>
      <point x="704" y="457"/>
      <point x="699" y="477" type="curve" smooth="yes"/>
      <point x="677" y="554"/>
      <point x="665" y="617"/>
      <point x="647" y="663" type="curve" smooth="yes"/>
      <point x="640" y="681"/>
      <point x="629" y="694"/>
      <point x="617" y="694" type="curve" smooth="yes"/>
      <point x="607" y="694"/>
      <point x="600" y="686"/>
      <point x="588" y="676" type="curve" smooth="yes"/>
      <point x="541" y="634"/>
      <point x="473" y="534"/>
      <point x="473" y="534" type="curve"/>
      <point x="472" y="530"/>
      <point x="470" y="525"/>
      <point x="470" y="520" type="curve" smooth="yes"/>
      <point x="470" y="511"/>
      <point x="477" y="493"/>
      <point x="486" y="472" type="curve" smooth="yes"/>
      <point x="549" y="321"/>
      <point x="586" y="159"/>
      <point x="638" y="60" type="curve" smooth="yes"/>
      <point x="667" y="4"/>
      <point x="713" y="-32"/>
      <point x="776" y="-32" type="curve" smooth="yes"/>
      <point x="887" y="-32"/>
      <point x="1036" y="31"/>
      <point x="1113" y="86" type="curve" smooth="yes"/>
      <point x="1172" y="129"/>
      <point x="1260" y="238"/>
      <point x="1292" y="305" type="curve" smooth="yes"/>
      <point x="1334" y="390"/>
      <point x="1419" y="575"/>
      <point x="1419" y="758" type="curve" smooth="yes"/>
      <point x="1419" y="831"/>
      <point x="1392" y="989"/>
      <point x="1366" y="1057" type="curve" smooth="yes"/>
      <point x="1356" y="1081"/>
      <point x="1346" y="1088"/>
      <point x="1335" y="1088" type="curve" smooth="yes"/>
      <point x="1328" y="1088"/>
      <point x="1317" y="1081"/>
      <point x="1303" y="1065" type="curve" smooth="yes"/>
      <point x="1265" y="1023"/>
      <point x="1202" y="949"/>
      <point x="1185" y="927" type="curve" smooth="yes"/>
      <point x="1172" y="910"/>
      <point x="1165" y="903"/>
      <point x="1165" y="887" type="curve" smooth="yes"/>
      <point x="1165" y="876"/>
      <point x="1170" y="864"/>
      <point x="1180" y="838" type="curve" smooth="yes"/>
      <point x="1202" y="776"/>
      <point x="1233" y="658"/>
      <point x="1233" y="556" type="curve" smooth="yes"/>
      <point x="1233" y="337"/>
      <point x="980" y="190"/>
      <point x="844" y="190" type="curve" smooth="yes"/>
      <point x="810" y="190"/>
      <point x="776" y="215"/>
      <point x="765" y="240" type="curve" smooth="yes"/>
      <point x="753" y="272"/>
      <point x="742" y="301"/>
      <point x="742" y="315" type="curve" smooth="yes"/>
      <point x="742" y="326"/>
      <point x="746" y="330"/>
      <point x="756" y="337" type="curve" smooth="yes"/>
      <point x="824" y="378"/>
      <point x="893" y="431"/>
      <point x="973" y="534" type="curve" smooth="yes"/>
      <point x="1016" y="590"/>
      <point x="1041" y="679"/>
      <point x="1041" y="747" type="curve" smooth="yes"/>
      <point x="1041" y="910"/>
      <point x="946" y="998"/>
      <point x="754" y="998" type="curve" smooth="yes"/>
      <point x="417" y="998" type="line" smooth="yes"/>
      <point x="382" y="998"/>
      <point x="353" y="1002"/>
      <point x="339" y="1054" type="curve" smooth="yes"/>
      <point x="332" y="1079"/>
      <point x="325" y="1088"/>
      <point x="305" y="1088" type="curve" smooth="yes"/>
      <point x="298" y="1088"/>
      <point x="285" y="1077"/>
      <point x="270" y="1059" type="curve" smooth="yes"/>
      <point x="235" y="1014"/>
      <point x="169" y="918"/>
      <point x="145" y="880" type="curve" smooth="yes"/>
      <point x="131" y="857"/>
      <point x="127" y="846"/>
      <point x="125" y="824" type="curve" smooth="yes"/>
      <point x="125" y="821"/>
      <point x="131" y="795"/>
      <point x="133" y="788" type="curve" smooth="yes"/>
      <point x="193" y="547"/>
      <point x="193" y="282"/>
    </contour>
  </outline>
</glyph>
<glyph name="minus" format="1">
  <advance width="975"/>
  <unicode hex="2212"/>
  <outline>
    <contour>
      <point x="137" y="645" type="curve"/>
      <point x="113" y="645"/>
      <point x="108" y="634"/>
      <point x="108" y="617" type="curve" smooth="yes"/>
      <point x="108" y="525" type="line" smooth="yes"/>
      <point x="108" y="509"/>
      <point x="113" y="498"/>
      <point x="137" y="498" type="curve" smooth="yes"/>
      <point x="137" y="498"/>
      <point x="432" y="503"/>
      <point x="530" y="503" type="curve" smooth="yes"/>
      <point x="613" y="503"/>
      <point x="860" y="498"/>
      <point x="860" y="498" type="curve"/>
      <point x="884" y="498"/>
      <point x="889" y="509"/>
      <point x="889" y="525" type="curve" smooth="yes"/>
      <point x="889" y="617" type="line" smooth="yes"/>
      <point x="889" y="641"/>
      <point x="874" y="645"/>
      <point x="864" y="645" type="curve" smooth="yes"/>
      <point x="865" y="645"/>
      <point x="634" y="640"/>
      <point x="527" y="640" type="curve" smooth="yes"/>
      <point x="410" y="640"/>
      <point x="137" y="645"/>
    </contour>
  </outline>
</glyph>
<glyph name="lessequal" format="1">
  <advance width="975"/>
  <unicode hex="2264"/>
  <outline>
    <contour>
      <point x="156" y="151" type="curve"/>
      <point x="138" y="151"/>
      <point x="129" y="144"/>
      <point x="129" y="122" type="curve" smooth="yes"/>
      <point x="129" y="31" type="line" smooth="yes"/>
      <point x="129" y="14"/>
      <point x="135" y="4"/>
      <point x="158" y="4" type="curve" smooth="yes"/>
      <point x="158" y="4"/>
      <point x="414" y="9"/>
      <point x="503" y="9" type="curve" smooth="yes"/>
      <point x="595" y="9"/>
      <point x="851" y="4"/>
      <point x="851" y="4" type="curve"/>
      <point x="874" y="4"/>
      <point x="880" y="14"/>
      <point x="880" y="31" type="curve" smooth="yes"/>
      <point x="880" y="122" type="line" smooth="yes"/>
      <point x="880" y="144"/>
      <point x="869" y="151"/>
      <point x="853" y="151" type="curve" smooth="yes"/>
      <point x="853" y="151"/>
      <point x="613" y="145"/>
      <point x="503" y="145" type="curve" smooth="yes"/>
      <point x="395" y="145"/>
      <point x="156" y="151"/>
    </contour>
    <contour>
      <point x="140" y="529" type="curve" smooth="yes"/>
      <point x="200" y="503"/>
      <point x="349" y="436"/>
      <point x="491" y="369" type="curve" smooth="yes"/>
      <point x="619" y="310"/>
      <point x="742" y="251"/>
      <point x="792" y="224" type="curve" smooth="yes"/>
      <point x="797" y="222"/>
      <point x="805" y="221"/>
      <point x="810" y="221" type="curve" smooth="yes"/>
      <point x="817" y="221"/>
      <point x="824" y="224"/>
      <point x="831" y="236" type="curve" smooth="yes"/>
      <point x="872" y="323" type="line" smooth="yes"/>
      <point x="874" y="328"/>
      <point x="876" y="333"/>
      <point x="876" y="337" type="curve" smooth="yes"/>
      <point x="876" y="346"/>
      <point x="872" y="353"/>
      <point x="858" y="359" type="curve" smooth="yes"/>
      <point x="801" y="382"/>
      <point x="679" y="439"/>
      <point x="561" y="493" type="curve" smooth="yes"/>
      <point x="470" y="534"/>
      <point x="393" y="571"/>
      <point x="315" y="607" type="curve"/>
      <point x="563" y="722" type="line" smooth="yes"/>
      <point x="641" y="758"/>
      <point x="855" y="851"/>
      <point x="855" y="851" type="curve"/>
      <point x="871" y="860"/>
      <point x="876" y="865"/>
      <point x="876" y="876" type="curve"/>
      <point x="874" y="879"/>
      <point x="872" y="882"/>
      <point x="872" y="886" type="curve"/>
      <point x="833" y="971" type="line" smooth="yes"/>
      <point x="826" y="987"/>
      <point x="817" y="991"/>
      <point x="810" y="991" type="curve" smooth="yes"/>
      <point x="803" y="991"/>
      <point x="797" y="989"/>
      <point x="792" y="987" type="curve" smooth="yes"/>
      <point x="480" y="835" type="line" smooth="yes"/>
      <point x="371" y="781"/>
      <point x="217" y="720"/>
      <point x="140" y="688" type="curve" smooth="yes"/>
      <point x="125" y="681"/>
      <point x="116" y="676"/>
      <point x="116" y="658" type="curve" smooth="yes"/>
      <point x="116" y="563" type="line" smooth="yes"/>
      <point x="116" y="543"/>
      <point x="123" y="536"/>
    </contour>
  </outline>
</glyph>
<glyph name="greaterequal" format="1">
  <advance width="975"/>
  <unicode hex="2265"/>
  <outline>
    <contour>
      <point x="841" y="151" type="curve"/>
      <point x="841" y="151"/>
      <point x="602" y="145"/>
      <point x="493" y="145" type="curve" smooth="yes"/>
      <point x="383" y="145"/>
      <point x="144" y="151"/>
      <point x="144" y="151" type="curve"/>
      <point x="127" y="151"/>
      <point x="116" y="144"/>
      <point x="116" y="122" type="curve" smooth="yes"/>
      <point x="116" y="31" type="line" smooth="yes"/>
      <point x="116" y="14"/>
      <point x="122" y="4"/>
      <point x="145" y="4" type="curve" smooth="yes"/>
      <point x="145" y="4"/>
      <point x="402" y="9"/>
      <point x="493" y="9" type="curve" smooth="yes"/>
      <point x="583" y="9"/>
      <point x="838" y="4"/>
      <point x="838" y="4" type="curve"/>
      <point x="862" y="4"/>
      <point x="867" y="14"/>
      <point x="867" y="31" type="curve" smooth="yes"/>
      <point x="867" y="122" type="line" smooth="yes"/>
      <point x="867" y="144"/>
      <point x="858" y="151"/>
    </contour>
    <contour>
      <point x="857" y="529" type="curve" smooth="yes"/>
      <point x="872" y="536"/>
      <point x="880" y="543"/>
      <point x="880" y="563" type="curve" smooth="yes"/>
      <point x="880" y="658" type="line" smooth="yes"/>
      <point x="880" y="676"/>
      <point x="871" y="681"/>
      <point x="857" y="688" type="curve" smooth="yes"/>
      <point x="780" y="720"/>
      <point x="626" y="781"/>
      <point x="516" y="835" type="curve" smooth="yes"/>
      <point x="204" y="987" type="line" smooth="yes"/>
      <point x="199" y="989"/>
      <point x="193" y="991"/>
      <point x="186" y="991" type="curve" smooth="yes"/>
      <point x="179" y="991"/>
      <point x="171" y="987"/>
      <point x="163" y="971" type="curve" smooth="yes"/>
      <point x="123" y="886" type="line"/>
      <point x="123" y="882"/>
      <point x="122" y="879"/>
      <point x="120" y="876" type="curve"/>
      <point x="120" y="865"/>
      <point x="125" y="860"/>
      <point x="142" y="851" type="curve"/>
      <point x="142" y="851"/>
      <point x="355" y="758"/>
      <point x="434" y="722" type="curve" smooth="yes"/>
      <point x="681" y="607" type="line"/>
      <point x="604" y="571"/>
      <point x="527" y="534"/>
      <point x="436" y="493" type="curve" smooth="yes"/>
      <point x="317" y="439"/>
      <point x="195" y="382"/>
      <point x="138" y="359" type="curve" smooth="yes"/>
      <point x="123" y="353"/>
      <point x="120" y="346"/>
      <point x="120" y="337" type="curve" smooth="yes"/>
      <point x="120" y="333"/>
      <point x="122" y="328"/>
      <point x="123" y="323" type="curve" smooth="yes"/>
      <point x="165" y="236" type="line" smooth="yes"/>
      <point x="172" y="224"/>
      <point x="179" y="221"/>
      <point x="186" y="221" type="curve" smooth="yes"/>
      <point x="192" y="221"/>
      <point x="199" y="222"/>
      <point x="204" y="224" type="curve" smooth="yes"/>
      <point x="255" y="251"/>
      <point x="378" y="310"/>
      <point x="506" y="369" type="curve" smooth="yes"/>
      <point x="647" y="436"/>
      <point x="795" y="503"/>
    </contour>
  </outline>
</glyph>
<glyph name="uniFB1D" format="1">
  <advance width="730"/>
  <unicode hex="FB1D"/>
  <outline>
    <contour>
      <point x="285" y="306" type="curve" smooth="yes"/>
      <point x="282" y="299"/>
      <point x="270" y="279"/>
      <point x="270" y="272" type="curve" smooth="yes"/>
      <point x="270" y="263"/>
      <point x="277" y="260"/>
      <point x="284" y="260" type="curve" smooth="yes"/>
      <point x="291" y="260"/>
      <point x="305" y="265"/>
      <point x="319" y="272" type="curve" smooth="yes"/>
      <point x="355" y="292"/>
      <point x="403" y="325"/>
      <point x="434" y="347" type="curve" smooth="yes"/>
      <point x="466" y="373"/>
      <point x="484" y="387"/>
      <point x="513" y="431" type="curve" smooth="yes"/>
      <point x="564" y="509"/>
      <point x="627" y="619"/>
      <point x="627" y="699" type="curve" smooth="yes"/>
      <point x="627" y="751"/>
      <point x="611" y="799"/>
      <point x="571" y="843" type="curve" smooth="yes"/>
      <point x="508" y="914"/>
      <point x="362" y="1021"/>
      <point x="269" y="1075" type="curve" smooth="yes"/>
      <point x="265" y="1077"/>
      <point x="262" y="1079"/>
      <point x="255" y="1079" type="curve" smooth="yes"/>
      <point x="249" y="1079"/>
      <point x="242" y="1075"/>
      <point x="229" y="1062" type="curve" smooth="yes"/>
      <point x="197" y="1031"/>
      <point x="120" y="918"/>
      <point x="102" y="889" type="curve" smooth="yes"/>
      <point x="97" y="882"/>
      <point x="93" y="872"/>
      <point x="93" y="867" type="curve" smooth="yes"/>
      <point x="93" y="860"/>
      <point x="97" y="853"/>
      <point x="106" y="846" type="curve" smooth="yes"/>
      <point x="166" y="803"/>
      <point x="299" y="727"/>
      <point x="361" y="665" type="curve" smooth="yes"/>
      <point x="393" y="631"/>
      <point x="400" y="593"/>
      <point x="400" y="563" type="curve" smooth="yes"/>
      <point x="400" y="500"/>
      <point x="323" y="378"/>
    </contour>
    <contour>
      <point x="432" y="-226" type="curve" smooth="yes"/>
      <point x="432" y="-267"/>
      <point x="400" y="-299"/>
      <point x="361" y="-299" type="curve" smooth="yes"/>
      <point x="319" y="-299"/>
      <point x="287" y="-267"/>
      <point x="287" y="-226" type="curve" smooth="yes"/>
      <point x="287" y="-186"/>
      <point x="319" y="-152"/>
      <point x="361" y="-152" type="curve" smooth="yes"/>
      <point x="400" y="-152"/>
      <point x="432" y="-186"/>
    </contour>
  </outline>
</glyph>
<glyph name="uniFB20" format="1">
  <advance width="1016"/>
  <unicode hex="FB20"/>
  <outline>
    <contour>
      <point x="165" y="70" type="curve" smooth="yes"/>
      <point x="137" y="12"/>
      <point x="82" y="-104"/>
      <point x="82" y="-138" type="curve" smooth="yes"/>
      <point x="82" y="-152"/>
      <point x="89" y="-159"/>
      <point x="102" y="-159" type="curve" smooth="yes"/>
      <point x="111" y="-159"/>
      <point x="142" y="-149"/>
      <point x="178" y="-133" type="curve" smooth="yes"/>
      <point x="421" y="-25"/>
      <point x="645" y="123"/>
      <point x="688" y="156" type="curve" smooth="yes"/>
      <point x="740" y="195"/>
      <point x="787" y="253"/>
      <point x="814" y="313" type="curve" smooth="yes"/>
      <point x="865" y="431"/>
      <point x="896" y="554"/>
      <point x="901" y="619" type="curve" smooth="yes"/>
      <point x="903" y="643"/>
      <point x="907" y="676"/>
      <point x="907" y="722" type="curve" smooth="yes"/>
      <point x="905" y="810"/>
      <point x="882" y="944"/>
      <point x="843" y="1055" type="curve" smooth="yes"/>
      <point x="835" y="1074"/>
      <point x="824" y="1079"/>
      <point x="816" y="1079" type="curve" smooth="yes"/>
      <point x="807" y="1079"/>
      <point x="797" y="1074"/>
      <point x="785" y="1059" type="curve" smooth="yes"/>
      <point x="746" y="1012"/>
      <point x="710" y="959"/>
      <point x="676" y="912" type="curve" smooth="yes"/>
      <point x="662" y="893"/>
      <point x="652" y="874"/>
      <point x="652" y="862" type="curve" smooth="yes"/>
      <point x="652" y="844"/>
      <point x="665" y="821"/>
      <point x="679" y="787" type="curve" smooth="yes"/>
      <point x="717" y="696"/>
      <point x="744" y="568"/>
      <point x="744" y="486" type="curve" smooth="yes"/>
      <point x="744" y="434"/>
      <point x="733" y="402"/>
      <point x="697" y="375" type="curve" smooth="yes"/>
      <point x="660" y="346"/>
      <point x="609" y="315"/>
      <point x="545" y="277" type="curve" smooth="yes"/>
      <point x="536" y="272"/>
      <point x="529" y="270"/>
      <point x="525" y="270" type="curve" smooth="yes"/>
      <point x="520" y="270"/>
      <point x="516" y="274"/>
      <point x="515" y="284" type="curve" smooth="yes"/>
      <point x="457" y="515"/>
      <point x="393" y="816"/>
      <point x="284" y="1055" type="curve" smooth="yes"/>
      <point x="277" y="1067"/>
      <point x="270" y="1079"/>
      <point x="260" y="1079" type="curve" smooth="yes"/>
      <point x="244" y="1079"/>
      <point x="231" y="1067"/>
      <point x="214" y="1045" type="curve" smooth="yes"/>
      <point x="178" y="1002"/>
      <point x="129" y="935"/>
      <point x="109" y="905" type="curve" smooth="yes"/>
      <point x="95" y="884"/>
      <point x="89" y="872"/>
      <point x="89" y="864" type="curve" smooth="yes"/>
      <point x="89" y="855"/>
      <point x="97" y="843"/>
      <point x="108" y="828" type="curve" smooth="yes"/>
      <point x="242" y="629"/>
      <point x="323" y="357"/>
      <point x="359" y="217" type="curve" smooth="yes"/>
      <point x="361" y="210"/>
      <point x="362" y="199"/>
      <point x="362" y="197" type="curve" smooth="yes"/>
      <point x="362" y="188"/>
      <point x="359" y="183"/>
      <point x="351" y="179" type="curve" smooth="yes"/>
      <point x="279" y="144"/>
      <point x="224" y="118"/>
      <point x="200" y="106" type="curve" smooth="yes"/>
      <point x="181" y="95"/>
      <point x="171" y="81"/>
    </contour>
  </outline>
</glyph>
<glyph name="shindageshshindothebrew" format="1">
  <advance width="1301"/>
  <unicode hex="FB2C"/>
  <outline>
    <contour>
      <point x="1043" y="1199" type="curve" smooth="yes"/>
      <point x="1043" y="1240"/>
      <point x="1009" y="1272"/>
      <point x="970" y="1272" type="curve" smooth="yes"/>
      <point x="928" y="1272"/>
      <point x="896" y="1240"/>
      <point x="896" y="1199" type="curve" smooth="yes"/>
      <point x="896" y="1159"/>
      <point x="928" y="1127"/>
      <point x="970" y="1127" type="curve" smooth="yes"/>
      <point x="1009" y="1127"/>
      <point x="1043" y="1159"/>
    </contour>
    <contour>
      <point x="335" y="197" type="curve" smooth="yes"/>
      <point x="366" y="65"/>
      <point x="409" y="-31"/>
      <point x="520" y="-31" type="curve" smooth="yes"/>
      <point x="563" y="-31"/>
      <point x="611" y="-20"/>
      <point x="660" y="-5" type="curve" smooth="yes"/>
      <point x="744" y="20"/>
      <point x="824" y="63"/>
      <point x="879" y="102" type="curve" smooth="yes"/>
      <point x="937" y="144"/>
      <point x="998" y="208"/>
      <point x="1036" y="267" type="curve" smooth="yes"/>
      <point x="1084" y="346"/>
      <point x="1188" y="539"/>
      <point x="1188" y="776" type="curve" smooth="yes"/>
      <point x="1188" y="844"/>
      <point x="1159" y="975"/>
      <point x="1138" y="1041" type="curve" smooth="yes"/>
      <point x="1129" y="1068"/>
      <point x="1118" y="1079"/>
      <point x="1106" y="1079" type="curve" smooth="yes"/>
      <point x="1095" y="1079"/>
      <point x="1084" y="1070"/>
      <point x="1070" y="1055" type="curve" smooth="yes"/>
      <point x="1025" y="1011"/>
      <point x="985" y="963"/>
      <point x="951" y="918" type="curve" smooth="yes"/>
      <point x="939" y="901"/>
      <point x="935" y="889"/>
      <point x="935" y="880" type="curve" smooth="yes"/>
      <point x="935" y="872"/>
      <point x="937" y="858"/>
      <point x="946" y="837" type="curve" smooth="yes"/>
      <point x="971" y="776"/>
      <point x="1002" y="633"/>
      <point x="1002" y="530" type="curve" smooth="yes"/>
      <point x="1002" y="423"/>
      <point x="968" y="362"/>
      <point x="901" y="308" type="curve" smooth="yes"/>
      <point x="797" y="224"/>
      <point x="681" y="202"/>
      <point x="595" y="202" type="curve" smooth="yes"/>
      <point x="516" y="202"/>
      <point x="503" y="251"/>
      <point x="484" y="353" type="curve" smooth="yes"/>
      <point x="482" y="362"/>
      <point x="480" y="373"/>
      <point x="480" y="376" type="curve" smooth="yes"/>
      <point x="480" y="383"/>
      <point x="486" y="389"/>
      <point x="494" y="396" type="curve" smooth="yes"/>
      <point x="534" y="426"/>
      <point x="593" y="470"/>
      <point x="633" y="513" type="curve" smooth="yes"/>
      <point x="710" y="595"/>
      <point x="783" y="720"/>
      <point x="783" y="838" type="curve" smooth="yes"/>
      <point x="783" y="910"/>
      <point x="756" y="1002"/>
      <point x="737" y="1050" type="curve" smooth="yes"/>
      <point x="730" y="1068"/>
      <point x="718" y="1079"/>
      <point x="708" y="1079" type="curve" smooth="yes"/>
      <point x="703" y="1079"/>
      <point x="690" y="1075"/>
      <point x="674" y="1055" type="curve" smooth="yes"/>
      <point x="645" y="1019"/>
      <point x="593" y="968"/>
      <point x="556" y="903" type="curve" smooth="yes"/>
      <point x="549" y="891"/>
      <point x="545" y="884"/>
      <point x="545" y="872" type="curve" smooth="yes"/>
      <point x="545" y="865"/>
      <point x="549" y="858"/>
      <point x="552" y="848" type="curve" smooth="yes"/>
      <point x="571" y="797"/>
      <point x="583" y="760"/>
      <point x="583" y="690" type="curve" smooth="yes"/>
      <point x="583" y="583"/>
      <point x="493" y="516"/>
      <point x="459" y="516" type="curve" smooth="yes"/>
      <point x="450" y="516"/>
      <point x="445" y="527"/>
      <point x="443" y="532" type="curve" smooth="yes"/>
      <point x="426" y="602"/>
      <point x="412" y="658"/>
      <point x="396" y="718" type="curve" smooth="yes"/>
      <point x="355" y="876"/>
      <point x="313" y="997"/>
      <point x="284" y="1052" type="curve" smooth="yes"/>
      <point x="272" y="1072"/>
      <point x="262" y="1079"/>
      <point x="253" y="1079" type="curve" smooth="yes"/>
      <point x="244" y="1079"/>
      <point x="235" y="1074"/>
      <point x="222" y="1057" type="curve" smooth="yes"/>
      <point x="183" y="1007"/>
      <point x="115" y="908"/>
      <point x="111" y="901" type="curve" smooth="yes"/>
      <point x="108" y="896"/>
      <point x="104" y="886"/>
      <point x="104" y="879" type="curve" smooth="yes"/>
      <point x="104" y="871"/>
      <point x="115" y="853"/>
      <point x="123" y="835" type="curve" smooth="yes"/>
      <point x="204" y="674"/>
      <point x="298" y="364"/>
    </contour>
    <contour>
      <point x="889" y="498" type="curve" smooth="yes"/>
      <point x="889" y="539"/>
      <point x="857" y="571"/>
      <point x="817" y="571" type="curve" smooth="yes"/>
      <point x="776" y="571"/>
      <point x="744" y="539"/>
      <point x="744" y="498" type="curve" smooth="yes"/>
      <point x="744" y="459"/>
      <point x="776" y="426"/>
      <point x="817" y="426" type="curve" smooth="yes"/>
      <point x="857" y="426"/>
      <point x="889" y="459"/>
    </contour>
  </outline>
</glyph>
<glyph name="gimeldageshhebrew" format="1">
  <advance width="730"/>
  <unicode hex="FB32"/>
  <outline>
    <contour>
      <point x="108" y="176" type="curve" smooth="yes"/>
      <point x="91" y="133"/>
      <point x="52" y="-11"/>
      <point x="52" y="-20" type="curve" smooth="yes"/>
      <point x="52" y="-27"/>
      <point x="60" y="-34"/>
      <point x="67" y="-34" type="curve" smooth="yes"/>
      <point x="113" y="-34"/>
      <point x="231" y="27"/>
      <point x="279" y="65" type="curve" smooth="yes"/>
      <point x="351" y="120"/>
      <point x="405" y="188"/>
      <point x="428" y="274" type="curve" smooth="yes"/>
      <point x="432" y="285"/>
      <point x="438" y="287"/>
      <point x="441" y="287" type="curve" smooth="yes"/>
      <point x="445" y="287"/>
      <point x="448" y="284"/>
      <point x="448" y="279" type="curve" smooth="yes"/>
      <point x="455" y="240"/>
      <point x="480" y="48"/>
      <point x="506" y="-29" type="curve" smooth="yes"/>
      <point x="509" y="-39"/>
      <point x="520" y="-46"/>
      <point x="523" y="-46" type="curve" smooth="yes"/>
      <point x="536" y="-46"/>
      <point x="543" y="-38"/>
      <point x="545" y="-34" type="curve" smooth="yes"/>
      <point x="563" y="-4"/>
      <point x="588" y="89"/>
      <point x="604" y="144" type="curve" smooth="yes"/>
      <point x="611" y="166"/>
      <point x="614" y="186"/>
      <point x="614" y="207" type="curve" smooth="yes"/>
      <point x="614" y="214"/>
      <point x="611" y="248"/>
      <point x="609" y="262" type="curve" smooth="yes"/>
      <point x="586" y="450"/>
      <point x="575" y="523"/>
      <point x="539" y="732" type="curve" smooth="yes"/>
      <point x="527" y="805"/>
      <point x="482" y="893"/>
      <point x="432" y="941" type="curve" smooth="yes"/>
      <point x="375" y="995"/>
      <point x="313" y="1034"/>
      <point x="253" y="1068" type="curve" smooth="yes"/>
      <point x="236" y="1077"/>
      <point x="231" y="1081"/>
      <point x="222" y="1081" type="curve" smooth="yes"/>
      <point x="215" y="1081"/>
      <point x="210" y="1074"/>
      <point x="204" y="1067" type="curve" smooth="yes"/>
      <point x="185" y="1043"/>
      <point x="116" y="946"/>
      <point x="89" y="908" type="curve" smooth="yes"/>
      <point x="79" y="893"/>
      <point x="75" y="887"/>
      <point x="75" y="880" type="curve" smooth="yes"/>
      <point x="75" y="869"/>
      <point x="81" y="864"/>
      <point x="91" y="858" type="curve" smooth="yes"/>
      <point x="171" y="823"/>
      <point x="262" y="753"/>
      <point x="310" y="710" type="curve" smooth="yes"/>
      <point x="342" y="681"/>
      <point x="353" y="662"/>
      <point x="368" y="626" type="curve" smooth="yes"/>
      <point x="383" y="585"/>
      <point x="398" y="518"/>
      <point x="407" y="473" type="curve" smooth="yes"/>
      <point x="409" y="462"/>
      <point x="409" y="452"/>
      <point x="409" y="445" type="curve" smooth="yes"/>
      <point x="409" y="434"/>
      <point x="407" y="426"/>
      <point x="402" y="417" type="curve" smooth="yes"/>
      <point x="368" y="364"/>
      <point x="330" y="330"/>
      <point x="263" y="276" type="curve" smooth="yes"/>
      <point x="212" y="235"/>
      <point x="140" y="202"/>
      <point x="135" y="199" type="curve" smooth="yes"/>
      <point x="127" y="195"/>
      <point x="113" y="190"/>
    </contour>
    <contour>
      <point x="277" y="498" type="curve" smooth="yes"/>
      <point x="277" y="539"/>
      <point x="246" y="571"/>
      <point x="207" y="571" type="curve" smooth="yes"/>
      <point x="165" y="571"/>
      <point x="133" y="539"/>
      <point x="133" y="498" type="curve" smooth="yes"/>
      <point x="133" y="459"/>
      <point x="165" y="426"/>
      <point x="207" y="426" type="curve" smooth="yes"/>
      <point x="246" y="426"/>
      <point x="277" y="459"/>
    </contour>
  </outline>
</glyph>
<glyph name="tetdageshhebrew" format="1">
  <advance width="1301"/>
  <unicode hex="FB38"/>
  <outline>
    <contour>
      <point x="326" y="190" type="curve" smooth="yes"/>
      <point x="340" y="138"/>
      <point x="362" y="75"/>
      <point x="395" y="32" type="curve" smooth="yes"/>
      <point x="428" y="-12"/>
      <point x="489" y="-34"/>
      <point x="550" y="-34" type="curve" smooth="yes"/>
      <point x="720" y="-34"/>
      <point x="874" y="48"/>
      <point x="984" y="156" type="curve" smooth="yes"/>
      <point x="1110" y="282"/>
      <point x="1195" y="520"/>
      <point x="1195" y="663" type="curve" smooth="yes"/>
      <point x="1195" y="850"/>
      <point x="1093" y="1040"/>
      <point x="886" y="1040" type="curve" smooth="yes"/>
      <point x="794" y="1040"/>
      <point x="701" y="1012"/>
      <point x="636" y="961" type="curve" smooth="yes"/>
      <point x="624" y="949"/>
      <point x="611" y="934"/>
      <point x="599" y="905" type="curve" smooth="yes"/>
      <point x="575" y="851"/>
      <point x="554" y="799"/>
      <point x="543" y="749" type="curve" smooth="yes"/>
      <point x="541" y="742"/>
      <point x="539" y="735"/>
      <point x="539" y="720" type="curve" smooth="yes"/>
      <point x="539" y="715"/>
      <point x="545" y="711"/>
      <point x="552" y="711" type="curve" smooth="yes"/>
      <point x="556" y="711"/>
      <point x="561" y="713"/>
      <point x="564" y="715" type="curve" smooth="yes"/>
      <point x="634" y="754"/>
      <point x="696" y="803"/>
      <point x="776" y="803" type="curve" smooth="yes"/>
      <point x="865" y="803"/>
      <point x="937" y="761"/>
      <point x="977" y="696" type="curve" smooth="yes"/>
      <point x="1000" y="658"/>
      <point x="1014" y="600"/>
      <point x="1014" y="541" type="curve" smooth="yes"/>
      <point x="1014" y="412"/>
      <point x="982" y="346"/>
      <point x="898" y="287" type="curve" smooth="yes"/>
      <point x="844" y="249"/>
      <point x="692" y="207"/>
      <point x="586" y="207" type="curve" smooth="yes"/>
      <point x="516" y="207"/>
      <point x="484" y="279"/>
      <point x="470" y="337" type="curve" smooth="yes"/>
      <point x="446" y="421"/>
      <point x="417" y="633"/>
      <point x="393" y="749" type="curve" smooth="yes"/>
      <point x="366" y="874"/>
      <point x="333" y="995"/>
      <point x="289" y="1061" type="curve" smooth="yes"/>
      <point x="277" y="1077"/>
      <point x="274" y="1079"/>
      <point x="263" y="1079" type="curve" smooth="yes"/>
      <point x="256" y="1079"/>
      <point x="242" y="1062"/>
      <point x="233" y="1052" type="curve" smooth="yes"/>
      <point x="202" y="1016"/>
      <point x="165" y="971"/>
      <point x="116" y="900" type="curve" smooth="yes"/>
      <point x="108" y="887"/>
      <point x="104" y="880"/>
      <point x="104" y="872" type="curve" smooth="yes"/>
      <point x="104" y="867"/>
      <point x="106" y="858"/>
      <point x="111" y="851" type="curve" smooth="yes"/>
      <point x="178" y="754"/>
      <point x="219" y="609"/>
      <point x="238" y="532" type="curve" smooth="yes"/>
      <point x="256" y="466"/>
      <point x="305" y="265"/>
    </contour>
    <contour>
      <point x="790" y="498" type="curve" smooth="yes"/>
      <point x="790" y="539"/>
      <point x="758" y="571"/>
      <point x="718" y="571" type="curve" smooth="yes"/>
      <point x="677" y="571"/>
      <point x="645" y="539"/>
      <point x="645" y="498" type="curve" smooth="yes"/>
      <point x="645" y="459"/>
      <point x="677" y="426"/>
      <point x="718" y="426" type="curve" smooth="yes"/>
      <point x="758" y="426"/>
      <point x="790" y="459"/>
    </contour>
  </outline>
</glyph>
<glyph name="memdageshhebrew" format="1">
  <advance width="1301"/>
  <unicode hex="FB3E"/>
  <outline>
    <contour>
      <point x="279" y="525" type="curve" smooth="yes"/>
      <point x="279" y="376"/>
      <point x="152" y="50"/>
      <point x="152" y="-20" type="curve" smooth="yes"/>
      <point x="152" y="-32"/>
      <point x="158" y="-38"/>
      <point x="165" y="-38" type="curve" smooth="yes"/>
      <point x="178" y="-38"/>
      <point x="190" y="-29"/>
      <point x="207" y="-12" type="curve" smooth="yes"/>
      <point x="244" y="29"/>
      <point x="276" y="65"/>
      <point x="317" y="120" type="curve" smooth="yes"/>
      <point x="357" y="174"/>
      <point x="362" y="183"/>
      <point x="380" y="251" type="curve" smooth="yes"/>
      <point x="453" y="518"/>
      <point x="539" y="785"/>
      <point x="735" y="785" type="curve" smooth="yes"/>
      <point x="809" y="785"/>
      <point x="880" y="751"/>
      <point x="932" y="670" type="curve" smooth="yes"/>
      <point x="1002" y="559"/>
      <point x="1016" y="357"/>
      <point x="1016" y="262" type="curve" smooth="yes"/>
      <point x="1016" y="236"/>
      <point x="1000" y="235"/>
      <point x="984" y="235" type="curve" smooth="yes"/>
      <point x="622" y="235" type="line" smooth="yes"/>
      <point x="604" y="235"/>
      <point x="592" y="229"/>
      <point x="571" y="202" type="curve" smooth="yes"/>
      <point x="547" y="166"/>
      <point x="515" y="109"/>
      <point x="479" y="48" type="curve" smooth="yes"/>
      <point x="473" y="39"/>
      <point x="468" y="25"/>
      <point x="468" y="22" type="curve" smooth="yes"/>
      <point x="468" y="5"/>
      <point x="479" y="0"/>
      <point x="498" y="0" type="curve" smooth="yes"/>
      <point x="1021" y="0" type="line" smooth="yes"/>
      <point x="1070" y="0"/>
      <point x="1120" y="115"/>
      <point x="1154" y="214" type="curve" smooth="yes"/>
      <point x="1166" y="249"/>
      <point x="1178" y="292"/>
      <point x="1178" y="347" type="curve" smooth="yes"/>
      <point x="1178" y="487"/>
      <point x="1163" y="694"/>
      <point x="1111" y="814" type="curve" smooth="yes"/>
      <point x="1054" y="944"/>
      <point x="956" y="1027"/>
      <point x="826" y="1027" type="curve" smooth="yes"/>
      <point x="650" y="1027"/>
      <point x="549" y="891"/>
      <point x="466" y="715" type="curve" smooth="yes"/>
      <point x="464" y="711"/>
      <point x="462" y="711"/>
      <point x="460" y="711" type="curve" smooth="yes"/>
      <point x="459" y="711"/>
      <point x="457" y="713"/>
      <point x="457" y="717" type="curve" smooth="yes"/>
      <point x="457" y="747"/>
      <point x="414" y="912"/>
      <point x="328" y="1047" type="curve" smooth="yes"/>
      <point x="315" y="1067"/>
      <point x="305" y="1081"/>
      <point x="291" y="1081" type="curve" smooth="yes"/>
      <point x="282" y="1081"/>
      <point x="270" y="1070"/>
      <point x="256" y="1052" type="curve" smooth="yes"/>
      <point x="222" y="1009"/>
      <point x="165" y="932"/>
      <point x="140" y="894" type="curve" smooth="yes"/>
      <point x="133" y="882"/>
      <point x="125" y="869"/>
      <point x="125" y="857" type="curve" smooth="yes"/>
      <point x="125" y="850"/>
      <point x="133" y="838"/>
      <point x="147" y="823" type="curve" smooth="yes"/>
      <point x="171" y="797"/>
      <point x="197" y="758"/>
      <point x="219" y="722" type="curve" smooth="yes"/>
      <point x="256" y="656"/>
      <point x="279" y="592"/>
    </contour>
    <contour>
      <point x="797" y="498" type="curve" smooth="yes"/>
      <point x="797" y="539"/>
      <point x="765" y="571"/>
      <point x="725" y="571" type="curve" smooth="yes"/>
      <point x="684" y="571"/>
      <point x="652" y="539"/>
      <point x="652" y="498" type="curve" smooth="yes"/>
      <point x="652" y="459"/>
      <point x="684" y="426"/>
      <point x="725" y="426" type="curve" smooth="yes"/>
      <point x="765" y="426"/>
      <point x="797" y="459"/>
    </contour>
  </outline>
</glyph>
<glyph name="nundageshhebrew" format="1">
  <advance width="730"/>
  <unicode hex="FB40"/>
  <outline>
    <contour>
      <point x="58" y="20" type="curve" smooth="yes"/>
      <point x="58" y="9"/>
      <point x="65" y="0"/>
      <point x="82" y="0" type="curve" smooth="yes"/>
      <point x="419" y="0" type="line" smooth="yes"/>
      <point x="453" y="0"/>
      <point x="472" y="4"/>
      <point x="500" y="52" type="curve" smooth="yes"/>
      <point x="525" y="95"/>
      <point x="550" y="149"/>
      <point x="568" y="197" type="curve" smooth="yes"/>
      <point x="588" y="249"/>
      <point x="602" y="301"/>
      <point x="602" y="357" type="curve" smooth="yes"/>
      <point x="602" y="472"/>
      <point x="597" y="592"/>
      <point x="588" y="663" type="curve" smooth="yes"/>
      <point x="571" y="797"/>
      <point x="534" y="884"/>
      <point x="473" y="934" type="curve" smooth="yes"/>
      <point x="428" y="970"/>
      <point x="364" y="1019"/>
      <point x="303" y="1055" type="curve" smooth="yes"/>
      <point x="276" y="1072"/>
      <point x="263" y="1081"/>
      <point x="251" y="1081" type="curve" smooth="yes"/>
      <point x="242" y="1081"/>
      <point x="236" y="1077"/>
      <point x="222" y="1061" type="curve" smooth="yes"/>
      <point x="188" y="1023"/>
      <point x="140" y="956"/>
      <point x="115" y="912" type="curve" smooth="yes"/>
      <point x="104" y="894"/>
      <point x="99" y="884"/>
      <point x="99" y="876" type="curve" smooth="yes"/>
      <point x="99" y="864"/>
      <point x="108" y="857"/>
      <point x="118" y="851" type="curve" smooth="yes"/>
      <point x="197" y="812"/>
      <point x="260" y="771"/>
      <point x="308" y="735" type="curve" smooth="yes"/>
      <point x="389" y="676"/>
      <point x="414" y="619"/>
      <point x="424" y="530" type="curve" smooth="yes"/>
      <point x="432" y="475"/>
      <point x="439" y="407"/>
      <point x="439" y="335" type="curve" smooth="yes"/>
      <point x="439" y="270"/>
      <point x="439" y="235"/>
      <point x="407" y="235" type="curve" smooth="yes"/>
      <point x="176" y="235" type="line" smooth="yes"/>
      <point x="163" y="235"/>
      <point x="149" y="226"/>
      <point x="135" y="199" type="curve" smooth="yes"/>
      <point x="102" y="138"/>
      <point x="58" y="38"/>
    </contour>
    <contour>
      <point x="330" y="498" type="curve" smooth="yes"/>
      <point x="330" y="539"/>
      <point x="298" y="571"/>
      <point x="258" y="571" type="curve" smooth="yes"/>
      <point x="217" y="571"/>
      <point x="185" y="539"/>
      <point x="185" y="498" type="curve" smooth="yes"/>
      <point x="185" y="459"/>
      <point x="217" y="426"/>
      <point x="258" y="426" type="curve" smooth="yes"/>
      <point x="298" y="426"/>
      <point x="330" y="459"/>
    </contour>
  </outline>
</glyph>
<glyph name="bar" format="1">
  <advance width="585"/>
  <outline>
    <contour>
      <point x="127" y="-277" type="curve" smooth="yes"/>
      <point x="127" y="-292"/>
      <point x="131" y="-308"/>
      <point x="152" y="-308" type="curve" smooth="yes"/>
      <point x="219" y="-308" type="line" smooth="yes"/>
      <point x="238" y="-308"/>
      <point x="246" y="-294"/>
      <point x="246" y="-279" type="curve" smooth="yes"/>
      <point x="246" y="41"/>
      <point x="256" y="395"/>
      <point x="256" y="509" type="curve" smooth="yes"/>
      <point x="256" y="656"/>
      <point x="246" y="1057"/>
      <point x="246" y="1291" type="curve" smooth="yes"/>
      <point x="246" y="1305"/>
      <point x="238" y="1319"/>
      <point x="219" y="1319" type="curve" smooth="yes"/>
      <point x="152" y="1319" type="line" smooth="yes"/>
      <point x="131" y="1319"/>
      <point x="127" y="1303"/>
      <point x="127" y="1289" type="curve" smooth="yes"/>
      <point x="127" y="1061"/>
      <point x="115" y="656"/>
      <point x="115" y="509" type="curve" smooth="yes"/>
      <point x="115" y="395"/>
      <point x="122" y="-2"/>
    </contour>
  </outline>
</glyph>
<glyph name="eight.001" format="1">
  <advance width="896"/>
  <outline>
    <contour>
      <point x="77" y="263" type="curve" smooth="yes"/>
      <point x="77" y="70"/>
      <point x="277" y="-31"/>
      <point x="407" y="-31" type="curve" smooth="yes"/>
      <point x="590" y="-31"/>
      <point x="774" y="166"/>
      <point x="774" y="344" type="curve" smooth="yes"/>
      <point x="774" y="431"/>
      <point x="718" y="508"/>
      <point x="595" y="579" type="curve" smooth="yes"/>
      <point x="573" y="592"/>
      <point x="570" y="595"/>
      <point x="570" y="599" type="curve" smooth="yes"/>
      <point x="570" y="600"/>
      <point x="577" y="607"/>
      <point x="579" y="609" type="curve" smooth="yes"/>
      <point x="663" y="676"/>
      <point x="706" y="737"/>
      <point x="706" y="828" type="curve" smooth="yes"/>
      <point x="706" y="963"/>
      <point x="581" y="1072"/>
      <point x="421" y="1072" type="curve" smooth="yes"/>
      <point x="285" y="1072"/>
      <point x="109" y="923"/>
      <point x="109" y="749" type="curve" smooth="yes"/>
      <point x="109" y="634"/>
      <point x="179" y="575"/>
      <point x="236" y="543" type="curve" smooth="yes"/>
      <point x="242" y="541"/>
      <point x="248" y="536"/>
      <point x="248" y="532" type="curve" smooth="yes"/>
      <point x="248" y="530"/>
      <point x="244" y="523"/>
      <point x="236" y="520" type="curve" smooth="yes"/>
      <point x="181" y="486"/>
      <point x="77" y="402"/>
    </contour>
    <contour>
      <point x="564" y="284" type="curve" smooth="yes"/>
      <point x="564" y="217"/>
      <point x="532" y="174"/>
      <point x="448" y="174" type="curve" smooth="yes"/>
      <point x="342" y="174"/>
      <point x="265" y="236"/>
      <point x="265" y="326" type="curve" smooth="yes"/>
      <point x="265" y="424"/>
      <point x="355" y="460"/>
      <point x="361" y="460" type="curve" smooth="yes"/>
      <point x="366" y="460"/>
      <point x="369" y="460"/>
      <point x="383" y="453" type="curve" smooth="yes"/>
      <point x="501" y="395"/>
      <point x="564" y="355"/>
    </contour>
    <contour>
      <point x="450" y="656" type="curve" smooth="yes"/>
      <point x="439" y="656"/>
      <point x="428" y="660"/>
      <point x="414" y="667" type="curve" smooth="yes"/>
      <point x="361" y="694"/>
      <point x="303" y="727"/>
      <point x="303" y="797" type="curve" smooth="yes"/>
      <point x="303" y="841"/>
      <point x="317" y="882"/>
      <point x="387" y="882" type="curve" smooth="yes"/>
      <point x="459" y="882"/>
      <point x="529" y="841"/>
      <point x="529" y="767" type="curve" smooth="yes"/>
      <point x="529" y="735"/>
      <point x="516" y="704"/>
      <point x="489" y="681" type="curve" smooth="yes"/>
      <point x="462" y="660"/>
      <point x="455" y="656"/>
    </contour>
  </outline>
</glyph>
<glyph name="four.001" format="1">
  <advance width="896"/>
  <outline>
    <contour>
      <point x="480" y="256" type="curve" smooth="yes"/>
      <point x="480" y="228"/>
      <point x="487" y="65"/>
      <point x="487" y="-7" type="curve" smooth="yes"/>
      <point x="487" y="-36"/>
      <point x="496" y="-45"/>
      <point x="509" y="-45" type="curve" smooth="yes"/>
      <point x="520" y="-45"/>
      <point x="530" y="-34"/>
      <point x="547" y="-14" type="curve" smooth="yes"/>
      <point x="581" y="27"/>
      <point x="606" y="58"/>
      <point x="629" y="93" type="curve" smooth="yes"/>
      <point x="648" y="123"/>
      <point x="652" y="149"/>
      <point x="652" y="178" type="curve" smooth="yes"/>
      <point x="652" y="258" type="line" smooth="yes"/>
      <point x="652" y="276"/>
      <point x="658" y="289"/>
      <point x="670" y="289" type="curve" smooth="yes"/>
      <point x="730" y="289" type="line" smooth="yes"/>
      <point x="746" y="289"/>
      <point x="758" y="298"/>
      <point x="773" y="325" type="curve" smooth="yes"/>
      <point x="792" y="361"/>
      <point x="816" y="416"/>
      <point x="830" y="452" type="curve" smooth="yes"/>
      <point x="835" y="466"/>
      <point x="841" y="479"/>
      <point x="841" y="487" type="curve" smooth="yes"/>
      <point x="841" y="501"/>
      <point x="833" y="509"/>
      <point x="817" y="509" type="curve" smooth="yes"/>
      <point x="676" y="509" type="line" smooth="yes"/>
      <point x="662" y="509"/>
      <point x="655" y="513"/>
      <point x="655" y="525" type="curve" smooth="yes"/>
      <point x="655" y="552"/>
      <point x="650" y="910"/>
      <point x="631" y="1052" type="curve" smooth="yes"/>
      <point x="627" y="1077"/>
      <point x="614" y="1084"/>
      <point x="599" y="1084" type="curve" smooth="yes"/>
      <point x="573" y="1084"/>
      <point x="513" y="1055"/>
      <point x="487" y="1041" type="curve" smooth="yes"/>
      <point x="390" y="987"/>
      <point x="306" y="916"/>
      <point x="242" y="812" type="curve" smooth="yes"/>
      <point x="129" y="633"/>
      <point x="63" y="470"/>
      <point x="63" y="395" type="curve" smooth="yes"/>
      <point x="63" y="326"/>
      <point x="91" y="289"/>
      <point x="165" y="289" type="curve" smooth="yes"/>
      <point x="452" y="289" type="line" smooth="yes"/>
      <point x="472" y="289"/>
      <point x="480" y="279"/>
    </contour>
    <contour>
      <point x="468" y="819" type="curve" smooth="yes"/>
      <point x="479" y="739"/>
      <point x="486" y="599"/>
      <point x="486" y="532" type="curve" smooth="yes"/>
      <point x="486" y="516"/>
      <point x="479" y="508"/>
      <point x="466" y="508" type="curve" smooth="yes"/>
      <point x="308" y="508" type="line" smooth="yes"/>
      <point x="277" y="508"/>
      <point x="249" y="508"/>
      <point x="249" y="543" type="curve" smooth="yes"/>
      <point x="249" y="590"/>
      <point x="282" y="670"/>
      <point x="315" y="727" type="curve" smooth="yes"/>
      <point x="351" y="787"/>
      <point x="389" y="810"/>
      <point x="428" y="833" type="curve" smooth="yes"/>
      <point x="434" y="837"/>
      <point x="450" y="843"/>
      <point x="453" y="843" type="curve" smooth="yes"/>
      <point x="468" y="843"/>
      <point x="466" y="831"/>
    </contour>
  </outline>
</glyph>
<glyph name="nine.001" format="1">
  <advance width="894"/>
  <outline>
    <contour>
      <point x="453" y="366" type="curve" smooth="yes"/>
      <point x="453" y="347"/>
      <point x="262" y="74"/>
      <point x="221" y="16" type="curve" smooth="yes"/>
      <point x="212" y="4"/>
      <point x="202" y="-14"/>
      <point x="202" y="-25" type="curve" smooth="yes"/>
      <point x="202" y="-36"/>
      <point x="214" y="-46"/>
      <point x="228" y="-46" type="curve" smooth="yes"/>
      <point x="235" y="-46"/>
      <point x="244" y="-43"/>
      <point x="260" y="-36" type="curve" smooth="yes"/>
      <point x="292" y="-22"/>
      <point x="353" y="2"/>
      <point x="393" y="25" type="curve" smooth="yes"/>
      <point x="426" y="45"/>
      <point x="446" y="58"/>
      <point x="470" y="86" type="curve" smooth="yes"/>
      <point x="545" y="178"/>
      <point x="697" y="412"/>
      <point x="761" y="552" type="curve" smooth="yes"/>
      <point x="787" y="606"/>
      <point x="807" y="665"/>
      <point x="807" y="732" type="curve" smooth="yes"/>
      <point x="807" y="923"/>
      <point x="638" y="1074"/>
      <point x="460" y="1074" type="curve" smooth="yes"/>
      <point x="332" y="1074"/>
      <point x="228" y="985"/>
      <point x="178" y="923" type="curve" smooth="yes"/>
      <point x="135" y="869"/>
      <point x="74" y="763"/>
      <point x="74" y="665" type="curve" smooth="yes"/>
      <point x="74" y="466"/>
      <point x="235" y="357"/>
      <point x="361" y="357" type="curve" smooth="yes"/>
      <point x="403" y="357"/>
      <point x="439" y="373"/>
      <point x="445" y="373" type="curve" smooth="yes"/>
      <point x="450" y="373"/>
      <point x="453" y="371"/>
    </contour>
    <contour>
      <point x="410" y="872" type="curve" smooth="yes"/>
      <point x="518" y="872"/>
      <point x="595" y="794"/>
      <point x="595" y="699" type="curve" smooth="yes"/>
      <point x="595" y="597"/>
      <point x="541" y="534"/>
      <point x="438" y="534" type="curve" smooth="yes"/>
      <point x="344" y="534"/>
      <point x="262" y="606"/>
      <point x="262" y="720" type="curve" smooth="yes"/>
      <point x="262" y="801"/>
      <point x="298" y="872"/>
    </contour>
  </outline>
</glyph>
<glyph name="one.001" format="1">
  <advance width="896"/>
  <outline>
    <contour>
      <point x="99" y="41" type="curve" smooth="yes"/>
      <point x="93" y="29"/>
      <point x="89" y="18"/>
      <point x="89" y="12" type="curve" smooth="yes"/>
      <point x="89" y="0"/>
      <point x="108" y="0"/>
      <point x="127" y="0" type="curve" smooth="yes"/>
      <point x="674" y="0" type="line" smooth="yes"/>
      <point x="699" y="0"/>
      <point x="722" y="11"/>
      <point x="742" y="43" type="curve" smooth="yes"/>
      <point x="776" y="99"/>
      <point x="781" y="120"/>
      <point x="809" y="174" type="curve" smooth="yes"/>
      <point x="814" y="185"/>
      <point x="821" y="200"/>
      <point x="821" y="208" type="curve" smooth="yes"/>
      <point x="821" y="221"/>
      <point x="809" y="226"/>
      <point x="797" y="226" type="curve" smooth="yes"/>
      <point x="640" y="226" type="line" smooth="yes"/>
      <point x="607" y="226"/>
      <point x="585" y="240"/>
      <point x="585" y="274" type="curve" smooth="yes"/>
      <point x="585" y="330"/>
      <point x="571" y="516"/>
      <point x="571" y="778" type="curve" smooth="yes"/>
      <point x="571" y="819"/>
      <point x="571" y="973"/>
      <point x="547" y="1052" type="curve" smooth="yes"/>
      <point x="539" y="1074"/>
      <point x="520" y="1084"/>
      <point x="500" y="1084" type="curve" smooth="yes"/>
      <point x="479" y="1084"/>
      <point x="453" y="1075"/>
      <point x="428" y="1061" type="curve" smooth="yes"/>
      <point x="357" y="1019"/>
      <point x="262" y="951"/>
      <point x="204" y="907" type="curve" smooth="yes"/>
      <point x="181" y="889"/>
      <point x="166" y="869"/>
      <point x="166" y="858" type="curve" smooth="yes"/>
      <point x="166" y="838"/>
      <point x="183" y="831"/>
      <point x="210" y="830" type="curve" smooth="yes"/>
      <point x="292" y="823" type="line" smooth="yes"/>
      <point x="330" y="819"/>
      <point x="355" y="780"/>
      <point x="364" y="708" type="curve" smooth="yes"/>
      <point x="376" y="611"/>
      <point x="378" y="479"/>
      <point x="378" y="310" type="curve" smooth="yes"/>
      <point x="378" y="272"/>
      <point x="378" y="226"/>
      <point x="337" y="226" type="curve" smooth="yes"/>
      <point x="222" y="226" type="line" smooth="yes"/>
      <point x="199" y="226"/>
      <point x="190" y="219"/>
      <point x="183" y="208" type="curve" smooth="yes"/>
      <point x="163" y="179"/>
      <point x="115" y="79"/>
    </contour>
  </outline>
</glyph>
<glyph name="orn.1" format="1">
  <advance width="1033"/>
  <outline>
    <contour>
      <point x="559" y="235" type="curve" smooth="yes"/>
      <point x="559" y="466"/>
      <point x="655" y="701"/>
      <point x="914" y="701" type="curve" smooth="yes"/>
      <point x="923" y="701"/>
      <point x="927" y="704"/>
      <point x="927" y="711" type="curve" smooth="yes"/>
      <point x="927" y="717"/>
      <point x="923" y="727"/>
      <point x="920" y="739" type="curve" smooth="yes"/>
      <point x="901" y="792"/>
      <point x="884" y="838"/>
      <point x="860" y="887" type="curve" smooth="yes"/>
      <point x="857" y="896"/>
      <point x="853" y="898"/>
      <point x="844" y="898" type="curve" smooth="yes"/>
      <point x="773" y="893"/>
      <point x="622" y="727"/>
      <point x="566" y="554" type="curve" smooth="yes"/>
      <point x="561" y="537"/>
      <point x="557" y="529"/>
      <point x="554" y="529" type="curve" smooth="yes"/>
      <point x="550" y="529"/>
      <point x="547" y="539"/>
      <point x="547" y="566" type="curve" smooth="yes"/>
      <point x="547" y="663"/>
      <point x="602" y="1052"/>
      <point x="602" y="1188" type="curve" smooth="yes"/>
      <point x="602" y="1209"/>
      <point x="600" y="1222"/>
      <point x="592" y="1222" type="curve" smooth="yes"/>
      <point x="583" y="1222"/>
      <point x="570" y="1219"/>
      <point x="549" y="1206" type="curve" smooth="yes"/>
      <point x="518" y="1188"/>
      <point x="482" y="1166"/>
      <point x="431" y="1129" type="curve" smooth="yes"/>
      <point x="417" y="1120"/>
      <point x="417" y="1110"/>
      <point x="417" y="1098" type="curve" smooth="yes"/>
      <point x="417" y="1047"/>
      <point x="486" y="660"/>
      <point x="486" y="566" type="curve" smooth="yes"/>
      <point x="486" y="539"/>
      <point x="484" y="527"/>
      <point x="480" y="527" type="curve" smooth="yes"/>
      <point x="477" y="527"/>
      <point x="472" y="537"/>
      <point x="464" y="554" type="curve" smooth="yes"/>
      <point x="395" y="727"/>
      <point x="260" y="894"/>
      <point x="190" y="898" type="curve" smooth="yes"/>
      <point x="179" y="898"/>
      <point x="176" y="894"/>
      <point x="171" y="886" type="curve" smooth="yes"/>
      <point x="147" y="841"/>
      <point x="129" y="794"/>
      <point x="111" y="740" type="curve" smooth="yes"/>
      <point x="108" y="730"/>
      <point x="106" y="722"/>
      <point x="106" y="717" type="curve" smooth="yes"/>
      <point x="106" y="708"/>
      <point x="109" y="701"/>
      <point x="118" y="701" type="curve" smooth="yes"/>
      <point x="373" y="701"/>
      <point x="480" y="439"/>
      <point x="480" y="235" type="curve" smooth="yes"/>
      <point x="480" y="-12"/>
      <point x="439" y="-70"/>
      <point x="332" y="-174" type="curve" smooth="yes"/>
      <point x="328" y="-178"/>
      <point x="325" y="-181"/>
      <point x="325" y="-186" type="curve" smooth="yes"/>
      <point x="325" y="-192"/>
      <point x="326" y="-195"/>
      <point x="332" y="-202" type="curve" smooth="yes"/>
      <point x="351" y="-229"/>
      <point x="409" y="-284"/>
      <point x="431" y="-301" type="curve" smooth="yes"/>
      <point x="438" y="-306"/>
      <point x="445" y="-310"/>
      <point x="452" y="-310" type="curve" smooth="yes"/>
      <point x="460" y="-310"/>
      <point x="470" y="-305"/>
      <point x="477" y="-294" type="curve" smooth="yes"/>
      <point x="545" y="-195"/>
      <point x="559" y="-101"/>
    </contour>
  </outline>
</glyph>
<glyph name="orn.3" format="1">
  <advance width="1033"/>
  <outline>
    <contour>
      <point x="559" y="235" type="curve" smooth="yes"/>
      <point x="559" y="466"/>
      <point x="655" y="692"/>
      <point x="914" y="692" type="curve" smooth="yes"/>
      <point x="923" y="692"/>
      <point x="927" y="696"/>
      <point x="927" y="703" type="curve" smooth="yes"/>
      <point x="927" y="708"/>
      <point x="925" y="713"/>
      <point x="920" y="730" type="curve" smooth="yes"/>
      <point x="901" y="781"/>
      <point x="880" y="838"/>
      <point x="860" y="887" type="curve" smooth="yes"/>
      <point x="857" y="896"/>
      <point x="853" y="898"/>
      <point x="844" y="898" type="curve" smooth="yes"/>
      <point x="773" y="893"/>
      <point x="624" y="727"/>
      <point x="568" y="554" type="curve" smooth="yes"/>
      <point x="563" y="537"/>
      <point x="559" y="530"/>
      <point x="556" y="530" type="curve" smooth="yes"/>
      <point x="552" y="530"/>
      <point x="549" y="543"/>
      <point x="549" y="568" type="curve" smooth="yes"/>
      <point x="549" y="684"/>
      <point x="614" y="1045"/>
      <point x="614" y="1199" type="curve" smooth="yes"/>
      <point x="614" y="1222"/>
      <point x="611" y="1226"/>
      <point x="602" y="1226" type="curve" smooth="yes"/>
      <point x="431" y="1226" type="line" smooth="yes"/>
      <point x="419" y="1226"/>
      <point x="417" y="1221"/>
      <point x="417" y="1202" type="curve" smooth="yes"/>
      <point x="417" y="1038"/>
      <point x="484" y="662"/>
      <point x="484" y="568" type="curve" smooth="yes"/>
      <point x="484" y="541"/>
      <point x="482" y="529"/>
      <point x="479" y="529" type="curve" smooth="yes"/>
      <point x="475" y="529"/>
      <point x="470" y="537"/>
      <point x="462" y="554" type="curve" smooth="yes"/>
      <point x="393" y="727"/>
      <point x="260" y="894"/>
      <point x="190" y="898" type="curve" smooth="yes"/>
      <point x="179" y="898"/>
      <point x="174" y="894"/>
      <point x="169" y="882" type="curve" smooth="yes"/>
      <point x="149" y="835"/>
      <point x="131" y="788"/>
      <point x="113" y="737" type="curve" smooth="yes"/>
      <point x="108" y="720"/>
      <point x="106" y="713"/>
      <point x="106" y="708" type="curve" smooth="yes"/>
      <point x="106" y="699"/>
      <point x="109" y="692"/>
      <point x="118" y="692" type="curve" smooth="yes"/>
      <point x="373" y="692"/>
      <point x="480" y="439"/>
      <point x="480" y="235" type="curve" smooth="yes"/>
      <point x="480" y="-2"/>
      <point x="439" y="-70"/>
      <point x="332" y="-174" type="curve" smooth="yes"/>
      <point x="328" y="-178"/>
      <point x="325" y="-181"/>
      <point x="325" y="-186" type="curve" smooth="yes"/>
      <point x="325" y="-192"/>
      <point x="326" y="-195"/>
      <point x="332" y="-202" type="curve" smooth="yes"/>
      <point x="351" y="-229"/>
      <point x="409" y="-284"/>
      <point x="431" y="-301" type="curve" smooth="yes"/>
      <point x="438" y="-306"/>
      <point x="445" y="-310"/>
      <point x="452" y="-310" type="curve" smooth="yes"/>
      <point x="460" y="-310"/>
      <point x="470" y="-305"/>
      <point x="477" y="-294" type="curve" smooth="yes"/>
      <point x="545" y="-195"/>
      <point x="559" y="-91"/>
    </contour>
  </outline>
</glyph>
<glyph name="seven.001" format="1">
  <advance width="896"/>
  <outline>
    <contour>
      <point x="219" y="195" type="curve" smooth="yes"/>
      <point x="199" y="144"/>
      <point x="185" y="74"/>
      <point x="185" y="-18" type="curve" smooth="yes"/>
      <point x="185" y="-34"/>
      <point x="192" y="-43"/>
      <point x="204" y="-43" type="curve" smooth="yes"/>
      <point x="212" y="-43"/>
      <point x="222" y="-36"/>
      <point x="229" y="-31" type="curve" smooth="yes"/>
      <point x="277" y="5"/>
      <point x="349" y="75"/>
      <point x="396" y="127" type="curve" smooth="yes"/>
      <point x="410" y="144"/>
      <point x="416" y="171"/>
      <point x="417" y="192" type="curve" smooth="yes"/>
      <point x="419" y="217"/>
      <point x="432" y="265"/>
      <point x="445" y="298" type="curve" smooth="yes"/>
      <point x="475" y="383"/>
      <point x="550" y="506"/>
      <point x="604" y="585" type="curve" smooth="yes"/>
      <point x="640" y="636"/>
      <point x="713" y="732"/>
      <point x="753" y="805" type="curve" smooth="yes"/>
      <point x="785" y="865"/>
      <point x="814" y="935"/>
      <point x="814" y="964" type="curve" smooth="yes"/>
      <point x="814" y="982"/>
      <point x="805" y="1007"/>
      <point x="767" y="1007" type="curve" smooth="yes"/>
      <point x="332" y="1007" type="line" smooth="yes"/>
      <point x="285" y="1007"/>
      <point x="276" y="1019"/>
      <point x="263" y="1061" type="curve" smooth="yes"/>
      <point x="260" y="1072"/>
      <point x="251" y="1081"/>
      <point x="238" y="1081" type="curve" smooth="yes"/>
      <point x="228" y="1081"/>
      <point x="215" y="1070"/>
      <point x="208" y="1059" type="curve" smooth="yes"/>
      <point x="179" y="1016"/>
      <point x="116" y="914"/>
      <point x="82" y="844" type="curve" smooth="yes"/>
      <point x="75" y="830"/>
      <point x="67" y="807"/>
      <point x="67" y="803" type="curve" smooth="yes"/>
      <point x="67" y="781"/>
      <point x="81" y="773"/>
      <point x="106" y="773" type="curve" smooth="yes"/>
      <point x="506" y="773" type="line" smooth="yes"/>
      <point x="523" y="773"/>
      <point x="534" y="765"/>
      <point x="534" y="753" type="curve" smooth="yes"/>
      <point x="534" y="710"/>
      <point x="472" y="620"/>
      <point x="417" y="534" type="curve" smooth="yes"/>
      <point x="339" y="410"/>
      <point x="255" y="291"/>
    </contour>
  </outline>
</glyph>
<glyph name="six.001" format="1">
  <advance width="896"/>
  <outline>
    <contour>
      <point x="190" y="600" type="curve" smooth="yes"/>
      <point x="137" y="501"/>
      <point x="77" y="387"/>
      <point x="77" y="284" type="curve" smooth="yes"/>
      <point x="77" y="82"/>
      <point x="253" y="-31"/>
      <point x="403" y="-31" type="curve" smooth="yes"/>
      <point x="624" y="-31"/>
      <point x="795" y="221"/>
      <point x="795" y="371" type="curve" smooth="yes"/>
      <point x="795" y="520"/>
      <point x="697" y="669"/>
      <point x="523" y="669" type="curve" smooth="yes"/>
      <point x="459" y="669"/>
      <point x="436" y="650"/>
      <point x="431" y="650" type="curve" smooth="yes"/>
      <point x="428" y="650"/>
      <point x="424" y="652"/>
      <point x="424" y="656" type="curve" smooth="yes"/>
      <point x="424" y="658"/>
      <point x="428" y="663"/>
      <point x="434" y="672" type="curve" smooth="yes"/>
      <point x="484" y="754"/>
      <point x="588" y="908"/>
      <point x="670" y="1012" type="curve" smooth="yes"/>
      <point x="683" y="1029"/>
      <point x="696" y="1047"/>
      <point x="696" y="1059" type="curve" smooth="yes"/>
      <point x="696" y="1068"/>
      <point x="690" y="1079"/>
      <point x="674" y="1079" type="curve" smooth="yes"/>
      <point x="663" y="1079"/>
      <point x="645" y="1072"/>
      <point x="624" y="1065" type="curve" smooth="yes"/>
      <point x="581" y="1050"/>
      <point x="523" y="1029"/>
      <point x="489" y="1009" type="curve" smooth="yes"/>
      <point x="460" y="993"/>
      <point x="439" y="971"/>
      <point x="416" y="941" type="curve" smooth="yes"/>
      <point x="353" y="858"/>
      <point x="260" y="730"/>
    </contour>
    <contour>
      <point x="607" y="315" type="curve" smooth="yes"/>
      <point x="607" y="224"/>
      <point x="571" y="166"/>
      <point x="448" y="166" type="curve" smooth="yes"/>
      <point x="366" y="166"/>
      <point x="274" y="231"/>
      <point x="274" y="330" type="curve" smooth="yes"/>
      <point x="274" y="423"/>
      <point x="339" y="496"/>
      <point x="434" y="496" type="curve" smooth="yes"/>
      <point x="537" y="496"/>
      <point x="607" y="396"/>
    </contour>
  </outline>
</glyph>
<glyph name="three.001" format="1">
  <advance width="896"/>
  <outline>
    <contour>
      <point x="208" y="221" type="curve" smooth="yes"/>
      <point x="186" y="197"/>
      <point x="129" y="93"/>
      <point x="111" y="58" type="curve" smooth="yes"/>
      <point x="108" y="50"/>
      <point x="106" y="41"/>
      <point x="106" y="39" type="curve" smooth="yes"/>
      <point x="106" y="27"/>
      <point x="111" y="22"/>
      <point x="127" y="12" type="curve" smooth="yes"/>
      <point x="178" y="-12"/>
      <point x="289" y="-31"/>
      <point x="344" y="-31" type="curve" smooth="yes"/>
      <point x="416" y="-31"/>
      <point x="534" y="-5"/>
      <point x="611" y="68" type="curve" smooth="yes"/>
      <point x="681" y="137"/>
      <point x="756" y="240"/>
      <point x="756" y="364" type="curve" smooth="yes"/>
      <point x="756" y="494"/>
      <point x="650" y="559"/>
      <point x="575" y="597" type="curve" smooth="yes"/>
      <point x="564" y="602"/>
      <point x="557" y="604"/>
      <point x="557" y="609" type="curve" smooth="yes"/>
      <point x="557" y="611"/>
      <point x="559" y="614"/>
      <point x="564" y="620" type="curve" smooth="yes"/>
      <point x="631" y="670"/>
      <point x="690" y="749"/>
      <point x="690" y="831" type="curve" smooth="yes"/>
      <point x="690" y="1018"/>
      <point x="459" y="1075"/>
      <point x="306" y="1075" type="curve" smooth="yes"/>
      <point x="289" y="1075"/>
      <point x="282" y="1065"/>
      <point x="265" y="1041" type="curve" smooth="yes"/>
      <point x="242" y="1007"/>
      <point x="202" y="942"/>
      <point x="188" y="910" type="curve" smooth="yes"/>
      <point x="183" y="900"/>
      <point x="181" y="891"/>
      <point x="181" y="884" type="curve" smooth="yes"/>
      <point x="181" y="871"/>
      <point x="188" y="864"/>
      <point x="204" y="864" type="curve" smooth="yes"/>
      <point x="251" y="864"/>
      <point x="357" y="858"/>
      <point x="403" y="843" type="curve" smooth="yes"/>
      <point x="466" y="821"/>
      <point x="494" y="795"/>
      <point x="494" y="756" type="curve" smooth="yes"/>
      <point x="494" y="662"/>
      <point x="396" y="656"/>
      <point x="353" y="613" type="curve" smooth="yes"/>
      <point x="315" y="575"/>
      <point x="276" y="489"/>
      <point x="276" y="462" type="curve" smooth="yes"/>
      <point x="276" y="448"/>
      <point x="289" y="443"/>
      <point x="319" y="441" type="curve" smooth="yes"/>
      <point x="351" y="439"/>
      <point x="396" y="436"/>
      <point x="424" y="428" type="curve" smooth="yes"/>
      <point x="522" y="405"/>
      <point x="554" y="359"/>
      <point x="554" y="277" type="curve" smooth="yes"/>
      <point x="554" y="204"/>
      <point x="468" y="193"/>
      <point x="395" y="193" type="curve" smooth="yes"/>
      <point x="347" y="193"/>
      <point x="299" y="208"/>
      <point x="249" y="229" type="curve" smooth="yes"/>
      <point x="242" y="233"/>
      <point x="233" y="235"/>
      <point x="229" y="235" type="curve" smooth="yes"/>
      <point x="221" y="235"/>
      <point x="215" y="229"/>
    </contour>
  </outline>
</glyph>
